<svg width="18" height="19" viewBox="0 0 18 19" fill="none" xmlns="http://www.w3.org/2000/svg">
<path d="M0.878847 15.2309C1.32097 14.1836 1.96257 13.2323 2.76791 12.4301C3.5708 11.6255 4.5219 10.984 5.56869 10.541C5.57806 10.5363 5.58744 10.534 5.59682 10.5293C4.13666 9.47461 3.18744 7.75664 3.18744 5.81836C3.18744 2.60742 5.789 0.00585938 8.99994 0.00585938C12.2109 0.00585938 14.8124 2.60742 14.8124 5.81836C14.8124 7.75664 13.8632 9.47461 12.4031 10.5316C12.4124 10.5363 12.4218 10.5387 12.4312 10.5434C13.4812 10.9863 14.4234 11.6215 15.232 12.4324C16.0366 13.2353 16.6781 14.1864 17.121 15.2332C17.5562 16.258 17.7909 17.3567 17.8124 18.4699C17.8131 18.4949 17.8087 18.5198 17.7995 18.5431C17.7904 18.5664 17.7767 18.5876 17.7592 18.6055C17.7417 18.6235 17.7209 18.6377 17.6978 18.6474C17.6747 18.6571 17.65 18.6621 17.6249 18.6621H16.2187C16.1156 18.6621 16.0335 18.5801 16.0312 18.4793C15.9843 16.6699 15.2578 14.9754 13.9734 13.691C12.6445 12.3621 10.8796 11.6309 8.99994 11.6309C7.12025 11.6309 5.35541 12.3621 4.0265 13.691C2.74213 14.9754 2.01556 16.6699 1.96869 18.4793C1.96635 18.5824 1.88432 18.6621 1.78119 18.6621H0.374941C0.349918 18.6621 0.325146 18.6571 0.302088 18.6474C0.279028 18.6377 0.258146 18.6235 0.240673 18.6055C0.223198 18.5876 0.209486 18.5664 0.200344 18.5431C0.191202 18.5198 0.186815 18.4949 0.187441 18.4699C0.210878 17.3496 0.442909 16.2598 0.878847 15.2309ZM8.99994 9.84961C10.0757 9.84961 11.0882 9.43008 11.8499 8.66836C12.6117 7.90664 13.0312 6.89414 13.0312 5.81836C13.0312 4.74258 12.6117 3.73008 11.8499 2.96836C11.0882 2.20664 10.0757 1.78711 8.99994 1.78711C7.92416 1.78711 6.91166 2.20664 6.14994 2.96836C5.38822 3.73008 4.96869 4.74258 4.96869 5.81836C4.96869 6.89414 5.38822 7.90664 6.14994 8.66836C6.91166 9.43008 7.92416 9.84961 8.99994 9.84961Z" fill="#262626"/>
</svg>
