<svg width="20" height="19" viewBox="0 0 20 19" fill="none" xmlns="http://www.w3.org/2000/svg">
<path d="M1.65141 6.25547C2.09438 5.19844 2.73657 4.24922 3.55454 3.42891C4.36373 2.61752 5.32292 1.97115 6.37876 1.52578C7.4722 1.06218 8.64813 0.824604 9.83579 0.827344C10.8178 0.827344 11.7788 0.984375 12.6928 1.29609C14.828 0.3 17.2936 0.222656 18.0014 0.222656C18.053 0.222656 18.1749 0.222656 18.2217 0.227344C18.5006 0.236719 18.7561 0.379688 18.9061 0.611719C19.0584 0.84375 19.0866 1.13672 18.9858 1.39688L17.4788 5.18438C18.2903 6.55529 18.7177 8.1194 18.7163 9.7125C18.7163 10.9172 18.4819 12.0797 18.0178 13.1719C17.5749 14.2266 16.935 15.1781 16.1147 15.9961C15.3014 16.8117 14.3475 17.4516 13.2905 17.8992C12.1959 18.3633 11.0334 18.5977 9.83579 18.5977C8.63344 18.5977 7.47095 18.3633 6.37407 17.8992C5.32173 17.4563 4.37016 16.8141 3.5522 15.9961C2.73891 15.1805 2.09673 14.2289 1.64907 13.1695C1.18569 12.0752 0.948126 10.8985 0.950634 9.71016C0.95532 8.51016 1.18735 7.34766 1.65141 6.25547ZM9.27329 8.10703C9.27329 8.58516 9.66235 8.97656 10.1428 8.97656C10.6209 8.97656 11.0124 8.58516 11.0124 8.10703L11.0124 6.81562C11.0124 6.3375 10.6233 5.94609 10.1428 5.94609C9.66469 5.94609 9.27329 6.33516 9.27329 6.81562L9.27329 8.10703ZM5.16704 8.10703C5.16704 8.58516 5.5561 8.97656 6.03657 8.97656C6.51704 8.97656 6.9061 8.58516 6.9061 8.10703L6.9061 6.81562C6.9061 6.3375 6.5147 5.94609 6.03657 5.94609C5.55845 5.94609 5.16704 6.33516 5.16704 6.81562L5.16704 8.10703Z" fill="#262626"/>
</svg>
