<svg width="18" height="22" viewBox="0 0 18 22" fill="none" xmlns="http://www.w3.org/2000/svg">
<path d="M1.5 0.910156L16.5 0.910156C16.9148 0.910156 17.25 1.24531 17.25 1.66016V6.91016L0.75 6.91016V1.66016C0.75 1.24531 1.08516 0.910156 1.5 0.910156ZM14.25 4.84766C14.768 4.84766 15.1875 4.42813 15.1875 3.91016C15.1875 3.39219 14.768 2.97266 14.25 2.97266C13.732 2.97266 13.3125 3.39219 13.3125 3.91016C13.3125 4.42813 13.732 4.84766 14.25 4.84766ZM17.25 21.1602C17.25 21.575 16.9148 21.9102 16.5 21.9102L1.5 21.9102C1.08516 21.9102 0.75 21.575 0.75 21.1602V15.9102L17.25 15.9102V21.1602ZM14.25 17.9727C13.732 17.9727 13.3125 18.3922 13.3125 18.9102C13.3125 19.4281 13.732 19.8477 14.25 19.8477C14.768 19.8477 15.1875 19.4281 15.1875 18.9102C15.1875 18.3922 14.768 17.9727 14.25 17.9727ZM17.25 14.4102L0.75 14.4102V8.41016L17.25 8.41016V14.4102ZM14.25 10.4727C13.732 10.4727 13.3125 10.8922 13.3125 11.4102C13.3125 11.9281 13.732 12.3477 14.25 12.3477C14.768 12.3477 15.1875 11.9281 15.1875 11.4102C15.1875 10.8922 14.768 10.4727 14.25 10.4727Z" fill="#262626"/>
</svg>
