<svg width="22" height="17" viewBox="0 0 22 17" fill="none" xmlns="http://www.w3.org/2000/svg">
<path d="M1.25 0.107423L6.6125 0.107423C7.76328 0.107423 8.88828 0.437891 9.85625 1.06133L11 1.79492L12.1437 1.06133C13.1108 0.438011 14.237 0.106808 15.3875 0.107423L20.75 0.107423C21.1648 0.107423 21.5 0.442579 21.5 0.857423V14.1699C21.5 14.5848 21.1648 14.9199 20.75 14.9199H15.3875C14.2367 14.9199 13.1117 15.2504 12.1437 15.8738L11.1031 16.5441C11.0727 16.5629 11.0375 16.5746 11.0023 16.5746C10.9672 16.5746 10.932 16.5652 10.9016 16.5441L9.86094 15.8738C8.89063 15.2504 7.76328 14.9199 6.6125 14.9199H1.25C0.835155 14.9199 0.5 14.5848 0.5 14.1699V0.857423C0.5 0.442579 0.835155 0.107423 1.25 0.107423ZM13.5312 9.30664C13.5312 9.40273 13.6063 9.48242 13.6977 9.48242L18.0523 9.48242C18.1437 9.48242 18.2188 9.40273 18.2188 9.30664V8.25195C18.2188 8.15586 18.1437 8.07617 18.0523 8.07617H13.7C13.6086 8.07617 13.5336 8.15586 13.5336 8.25195V9.30664H13.5312ZM13.5312 6.02539C13.5312 6.12149 13.6063 6.20117 13.6977 6.20117L18.0523 6.20117C18.1437 6.20117 18.2188 6.12149 18.2188 6.02539V4.9707C18.2188 4.87461 18.1437 4.79492 18.0523 4.79492L13.7 4.79492C13.6086 4.79492 13.5336 4.87461 13.5336 4.9707V6.02539H13.5312ZM3.78125 9.30664C3.78125 9.40273 3.85625 9.48242 3.94765 9.48242H8.30234C8.39375 9.48242 8.46875 9.40273 8.46875 9.30664V8.25195C8.46875 8.15586 8.39375 8.07617 8.30234 8.07617H3.95C3.85859 8.07617 3.78359 8.15586 3.78359 8.25195V9.30664H3.78125ZM3.78125 6.02539C3.78125 6.12149 3.85625 6.20117 3.94765 6.20117H8.30234C8.39375 6.20117 8.46875 6.12149 8.46875 6.02539V4.9707C8.46875 4.87461 8.39375 4.79492 8.30234 4.79492H3.95C3.85859 4.79492 3.78359 4.87461 3.78359 4.9707V6.02539H3.78125Z" fill="#262626"/>
</svg>
