<svg width="20" height="19" viewBox="0 0 20 19" fill="none" xmlns="http://www.w3.org/2000/svg">
<path d="M1.04661 8.23857C0.32239 8.23857 0.0200462 7.3081 0.608328 6.8792L9.55911 0.368261C9.68693 0.27461 9.84127 0.224121 9.99973 0.224121C10.1582 0.224121 10.3125 0.27461 10.4404 0.368261L19.3911 6.8792C19.9794 7.30576 19.6771 8.23857 18.9505 8.23857H17.4997L17.4997 17.0042H19.1872C19.2904 17.0042 19.3747 17.0886 19.3747 17.1917V18.4104C19.3747 18.5136 19.2904 18.5979 19.1872 18.5979L0.812235 18.5979C0.709108 18.5979 0.624735 18.5136 0.624735 18.4104V17.1917C0.624735 17.0886 0.709108 17.0042 0.812235 17.0042H2.49973L2.49973 8.23857H1.04661ZM13.07 17.0042H15.8122L15.8122 8.23857H13.07L13.07 17.0042ZM8.64036 17.0042H11.3825V8.23857H8.64036V17.0042ZM4.18723 17.0042L6.95286 17.0042V8.23857H4.18723V17.0042Z" fill="#262626"/>
</svg>
