<svg width="41" height="52" viewBox="0 0 41 52" fill="none" xmlns="http://www.w3.org/2000/svg">
<path d="M22.2674 0.41748C22.9054 0.589547 23.5588 0.715214 24.1756 0.943347C25.5665 1.47527 26.7711 2.40315 27.6404 3.61228C28.5098 4.82142 29.0057 6.2588 29.0669 7.74674C29.092 8.52008 28.9954 8.68054 28.2723 8.98794V11.4761C29.4458 11.6134 30.2965 12.1586 30.6619 13.3051C30.7781 13.6667 30.8109 14.0499 30.7577 14.426C30.7045 14.8021 30.5667 15.1612 30.3548 15.4764C30.1429 15.7916 29.8623 16.0547 29.5341 16.2459C29.2058 16.437 28.8386 16.5513 28.4598 16.5801C28.1505 16.6033 27.992 16.6768 27.9146 17.0035C27.8102 17.4327 27.6304 17.8426 27.468 18.3027C28.8697 18.3027 30.2346 18.2853 31.5957 18.3027C34.5305 18.3453 36.895 20.2709 37.4808 23.1013C37.573 23.5914 37.6171 24.0893 37.6122 24.588C37.6277 26.4343 37.6122 28.2826 37.6277 30.1289C37.6278 30.3901 37.6979 30.6464 37.8307 30.8713C39.3757 33.2588 40.1864 36.0471 40.1623 38.8908C40.1623 42.7188 40.1623 46.5449 40.1623 50.3729C40.1623 51.2622 39.8878 51.5329 39.0023 51.5329H2.16072C1.25979 51.5387 0.977521 51.2641 0.977521 50.3941C0.977521 46.3341 0.956254 42.2741 1.00265 38.2141C1.04579 35.7067 1.79201 33.2617 3.15639 31.1575C3.41123 30.7722 3.5421 30.3182 3.53145 29.8563C3.50825 28.0912 3.51792 26.328 3.53145 24.5648C3.54305 20.8915 6.11052 18.3163 9.78192 18.3085C11.0637 18.3085 12.3436 18.3085 13.666 18.3085C13.492 17.7807 13.3393 17.28 13.1556 16.7928C13.121 16.7429 13.0763 16.7009 13.0243 16.6696C12.9723 16.6383 12.9142 16.6183 12.854 16.6111C11.2957 16.3868 10.3697 15.4511 10.3677 14.0649C10.3658 12.6787 11.2938 11.7159 12.8637 11.4761V8.92414H10.6307C10.2575 8.92414 9.87085 8.94348 9.48418 8.92414C9.26268 8.92594 9.04953 8.83967 8.89163 8.6843C8.73373 8.52894 8.64401 8.31722 8.64222 8.09571C8.64042 7.8742 8.7267 7.66105 8.88206 7.50315C9.03742 7.34525 9.24914 7.25554 9.47065 7.25374C10.1667 7.21314 10.8665 7.23634 11.5645 7.23248H11.9975C12.2527 6.43594 12.4171 5.66455 12.7418 4.96468C13.9018 2.45135 15.8932 0.95688 18.6443 0.518014C18.7235 0.492018 18.7999 0.458347 18.8724 0.41748L22.2674 0.41748ZM10.3832 49.8103H30.7508C30.7664 49.7227 30.7767 49.6342 30.7818 49.5454C30.7818 46.9509 30.7818 44.3544 30.7721 41.7579C30.7465 41.5365 30.6439 41.3312 30.4821 41.1779C29.4536 40.1591 28.4096 39.1557 27.3617 38.1581C26.5428 37.4091 25.8934 36.4939 25.4569 35.4736C25.0205 34.4533 24.8071 33.3515 24.831 32.2421C24.8426 30.3455 24.831 28.4489 24.831 26.5503V26.0148H23.9552C23.9552 26.9447 23.9938 27.8418 23.9552 28.7369C23.9036 29.6177 23.511 30.4438 22.8606 31.0399C22.2102 31.6361 21.3532 31.9555 20.4713 31.9303C19.5893 31.9052 18.7519 31.5375 18.1365 30.9052C17.5212 30.273 17.1763 29.4259 17.175 28.5436C17.1556 27.7007 17.175 26.8577 17.175 26.0303H16.303V26.6103C16.303 28.5069 16.303 30.4035 16.303 32.3001C16.3214 33.3906 16.1089 34.4728 15.6794 35.4754C15.2499 36.478 14.6131 37.3784 13.811 38.1175C12.7534 39.1305 11.6959 40.1417 10.6577 41.1741C10.4879 41.3431 10.3843 41.5674 10.3658 41.8063C10.3445 44.3525 10.3523 46.8987 10.3542 49.4429C10.3542 49.557 10.3716 49.6691 10.3832 49.8103ZM11.2474 26.7359C11.0251 26.8017 10.9149 26.8268 10.8105 26.8674C6.09892 28.6441 2.77745 33.3228 2.70205 38.3495C2.66339 40.9092 2.68852 43.4709 2.68852 46.0325C2.69536 46.1588 2.70891 46.2847 2.72912 46.4095H8.64319V45.7967C8.64319 42.9701 8.65865 40.1417 8.64319 37.3151C8.62063 36.8676 8.69245 36.4203 8.85399 36.0022C9.01553 35.5842 9.26318 35.2049 9.58085 34.8888C10.3542 34.1155 10.9458 33.1488 11.0444 32.0584C11.2029 30.3145 11.1875 28.5533 11.2474 26.7359ZM38.4281 46.4134C38.4397 46.2703 38.4532 46.1717 38.4532 46.0731C38.4532 43.5811 38.4958 41.0851 38.4397 38.5931C38.3392 34.1213 36.3962 30.6142 32.7054 28.1067C31.8799 27.546 30.9403 27.1555 29.9504 26.6315C29.9504 28.1511 29.9504 29.4929 29.9504 30.8365C29.9389 31.5867 30.0761 32.3318 30.3542 33.0287C30.6322 33.7256 31.0457 34.3604 31.5706 34.8965C31.8853 35.215 32.1307 35.5951 32.2914 36.013C32.4521 36.4309 32.5246 36.8775 32.5044 37.3248C32.4831 40.1513 32.5044 42.9779 32.5044 45.8044V46.4115L38.4281 46.4134ZM18.8473 10.3509C17.436 11.6985 16.8308 12.0059 14.8975 12.3055C14.6191 12.3481 14.592 12.4892 14.5978 12.7096C14.623 13.6395 14.5978 14.5733 14.6713 15.4994C14.9574 19.3989 19.2166 21.9722 22.8126 20.4139C25.0552 19.4473 26.31 17.7073 26.4859 15.2732C26.5729 14.0455 26.5014 12.8043 26.5014 11.6115C23.6594 12.9261 21.1228 12.5511 18.8473 10.3509ZM17.1692 24.3096C17.1692 23.4744 17.1692 22.7301 17.1692 21.9896C17.1394 21.8522 17.0585 21.7313 16.943 21.6513C16.3192 21.1602 15.687 20.6782 15.0464 20.2051C14.9249 20.0996 14.7749 20.0323 14.6152 20.0118C12.7206 20.0234 10.8221 19.9963 8.92932 20.0911C7.18932 20.18 5.46285 21.8311 5.33332 23.5711C5.21539 25.1429 5.28112 26.7282 5.26952 28.3058C5.26952 28.3251 5.31785 28.3425 5.37199 28.3812C8.64898 25.2569 12.6065 24.0041 17.1692 24.3096ZM35.8858 28.4759C35.9012 28.2826 35.9128 28.1937 35.9109 28.1144C35.8916 26.6683 35.9109 25.2144 35.8394 23.7779C35.7388 21.92 34.0433 20.1897 32.1834 20.1046C30.3236 20.0195 28.4289 20.0389 26.5497 20.0292C26.3753 20.0508 26.2112 20.1234 26.078 20.238C25.4516 20.7001 24.8348 21.1757 24.22 21.6513C24.1253 21.7267 23.988 21.833 23.9861 21.9277C23.9668 22.7011 23.9745 23.4744 23.9745 24.3193C28.5391 24.0041 32.5005 25.2801 35.8858 28.4759ZM27.2824 7.20928C27.2806 7.07376 27.2676 6.93863 27.2438 6.80521C26.6773 4.65921 25.3742 3.18215 23.2688 2.43588C22.0779 2.01248 20.8386 2.09175 19.6148 2.13815C17.3702 2.22321 15.6476 3.26335 14.5244 5.20441C14.1802 5.79988 14.014 6.49781 13.751 7.20928H27.2824ZM18.8724 22.4942C18.8724 24.4275 18.8724 26.4015 18.8724 28.3773C18.8724 29.4735 19.5955 30.2488 20.5834 30.2411C21.5714 30.2333 22.2693 29.4677 22.2712 28.358C22.2712 26.5136 22.2712 24.6698 22.2712 22.8267C22.2712 22.6875 22.25 22.5483 22.2461 22.4942H18.8724ZM10.3832 39.0629C11.1681 38.305 11.8738 37.609 12.593 36.9362C13.2486 36.3432 13.7679 35.6151 14.115 34.802C14.4622 33.9889 14.6289 33.1103 14.6037 32.2266C14.5824 30.33 14.6037 28.4334 14.6037 26.5368C14.6037 26.3763 14.5882 26.2159 14.5785 26.0129C14.1222 26.0747 13.7143 26.1443 13.3045 26.1753C12.9874 26.2004 12.8888 26.328 12.8927 26.647C12.9101 27.9443 12.8811 29.2415 12.8927 30.5388C12.9297 31.572 12.7586 32.6022 12.3896 33.568C12.0206 34.5338 11.4612 35.4156 10.7447 36.1609C10.592 36.3233 10.4064 36.5476 10.3967 36.7409C10.3581 37.4698 10.3832 38.2103 10.3832 39.0629ZM30.66 38.9913L30.7876 38.9449C30.7876 38.4481 30.7605 37.9512 30.7876 37.4582C30.811 37.1779 30.7711 36.896 30.6707 36.6332C30.5703 36.3705 30.412 36.1337 30.2076 35.9405C29.1694 34.8347 28.4676 33.5123 28.3496 31.9985C28.222 30.3609 28.2646 28.7118 28.2336 27.0646C28.2336 26.8055 28.2336 26.5465 28.2336 26.2391L26.5555 26.0225C26.542 26.1888 26.5304 26.27 26.5304 26.3512C26.5304 28.4134 26.5304 30.4756 26.5304 32.5379C26.5318 33.4902 26.7724 34.4269 27.2302 35.2619C28.077 36.7912 29.527 37.7443 30.66 38.9913ZM8.61225 48.1708H2.72719V49.8161H8.61225V48.1708ZM32.5237 49.8141H38.4223V48.1708H32.5237V49.8141ZM26.3583 8.97248H20.0305C21.1634 10.465 22.6618 10.7917 24.3302 10.5965C25.295 10.4843 25.9504 9.91401 26.3583 8.97248ZM14.6191 10.6197C15.2259 10.5978 15.8197 10.4381 16.3557 10.1527C16.8916 9.8673 17.3556 9.46371 17.7124 8.97248H14.6191V10.6197ZM12.8791 13.2258C12.2759 13.3689 12.0149 13.6743 12.0807 14.1499C12.1425 14.5927 12.4055 14.8343 12.8791 14.8749V13.2258ZM28.2762 13.2393V14.8537C28.804 14.7802 29.0495 14.5347 29.0727 14.0803C29.0959 13.626 28.833 13.3457 28.2742 13.2393H28.2762Z" fill="white"/>
</svg>
