<svg width="48" height="48" viewBox="0 0 48 48" fill="none" xmlns="http://www.w3.org/2000/svg">
<path d="M0.636719 44.2853V14.6702C1.07089 12.4133 2.75444 11.2628 5.19091 11.3288C8.50671 11.4204 11.828 11.3526 15.1456 11.3526H15.7392V15.8463H19.0843C19.0955 15.7977 19.1004 15.7478 19.099 15.698C19.0858 15.608 19.0681 15.5187 19.0458 15.4305C18.753 14.1359 18.6811 12.8012 18.8333 11.4827C19.118 9.04828 20.1351 6.7577 21.7501 4.91403C23.3651 3.07037 25.5018 1.76055 27.8776 1.1579C28.5371 0.993024 29.2149 0.901427 29.8927 0.776855H31.7246C31.8109 0.804468 31.8991 0.825895 31.9884 0.840973C34.7292 1.08517 37.2985 2.27942 39.2521 4.21723C41.4852 6.41555 42.7437 9.07369 42.8628 12.21C42.9068 13.4135 42.7419 14.6244 42.6686 15.8738H47.4207V47.5663H15.4534C11.8591 47.5663 8.26489 47.5663 4.67064 47.5663C3.68776 47.6011 2.72606 47.2753 1.9667 46.6503C1.21927 46.0348 0.863879 45.1976 0.636719 44.2853ZM15.7465 24.1157C16.4207 24.1853 17.0527 24.1853 17.6554 24.3227C18.8202 24.5733 19.8635 25.2169 20.61 26.1455C21.3565 27.0742 21.7609 28.2313 21.7553 29.4228C21.7809 32.3777 21.7553 35.3345 21.7663 38.2894C21.7663 40.713 23.5982 42.4662 25.8881 42.2628C27.8758 42.0797 29.3065 40.4584 29.3248 38.3333C29.3376 36.8257 29.3248 35.318 29.3376 33.8103C29.3478 32.5947 29.8042 31.4251 30.62 30.5238C32.2522 28.6717 34.8682 28.1423 37.0226 29.3092C39.5067 30.6465 40.1369 32.92 39.8053 35.4774H38.4112C38.3746 34.7702 38.3892 34.0833 38.294 33.4109C38.1108 32.0333 37.312 31.0551 36.048 30.5238C35.4463 30.253 34.7816 30.1532 34.1269 30.2353C33.4722 30.3174 32.8528 30.5782 32.3365 30.9891C31.2483 31.797 30.8178 32.9273 30.8142 34.25C30.8142 35.7576 30.8398 37.2653 30.7959 38.773C30.7024 42.0027 27.5533 44.4025 24.4079 43.6716C21.922 43.0927 20.2842 41.0538 20.2677 38.4561C20.2494 35.5616 20.2677 32.6672 20.2677 29.7727C20.2677 28.7029 20.0058 27.7264 19.2565 26.9222C18.3002 25.8945 17.1095 25.5849 15.7044 25.7296V41.5392H4.78788C4.62118 41.5392 4.45264 41.5392 4.28593 41.5392C3.35165 41.6198 2.6665 42.0888 2.32393 42.9535C2.15136 43.3489 2.10083 43.7868 2.17884 44.2112C2.25685 44.6355 2.45984 45.0268 2.76176 45.335C3.29486 45.9249 3.99282 46.0678 4.75308 46.0678C18.2947 46.0678 31.8364 46.0678 45.3781 46.0678C45.5411 46.0678 45.7041 46.055 45.8873 46.0458V17.3925C44.6984 17.3925 43.5443 17.3925 42.3902 17.3925C42.1007 17.3925 41.9816 17.5024 41.8406 17.7461C41.3588 18.6052 40.9246 19.5157 40.3109 20.276C37.3798 23.8959 33.5511 25.4695 28.9529 24.766C24.6973 24.1139 21.6545 21.6792 19.8189 17.7735C19.7762 17.6478 19.691 17.541 19.578 17.4714C19.4649 17.4018 19.3311 17.3739 19.1997 17.3925C18.194 17.4108 17.1846 17.3925 16.1825 17.3925C16.0378 17.3925 15.8931 17.4108 15.7392 17.42L15.7465 24.1157ZM14.204 40.0206V12.8493H13.6929C10.724 12.8493 7.75439 12.8493 4.78422 12.8493C3.03167 12.8493 2.15417 13.7299 2.15173 15.491C2.15173 23.731 2.15173 31.9698 2.15173 40.2074V40.7955C3.2344 39.9784 4.39585 40.0151 5.55546 40.0169C8.25024 40.0169 10.945 40.0169 13.6416 40.0169L14.204 40.0206ZM30.8087 23.4269C36.5756 23.4635 41.3478 18.717 41.3973 12.8969C41.4467 7.07688 36.7057 2.334 30.849 2.29553C25.0582 2.25889 20.3172 6.97429 20.2732 12.8108C20.2384 18.6181 24.9685 23.3903 30.8087 23.4269Z" fill="white"/>
<path d="M36.3223 37.6097L37.4306 36.5105L39.1031 38.2728L40.7794 36.4702L41.8785 37.5694L40.1217 39.2474L41.9701 40.9236L40.8325 41.9953L39.1508 40.277L37.502 42.0631L36.3791 40.964L38.1395 39.3152L36.3223 37.6097Z" fill="white"/>
<path d="M39.8744 12.8681C39.8725 14.0581 39.6357 15.2361 39.1777 16.3344C38.7197 17.4328 38.0494 18.43 37.2053 19.2688C36.3612 20.1077 35.3599 20.7717 34.2587 21.2228C33.1574 21.6739 31.978 21.9033 30.788 21.8977C25.8033 21.8684 21.7419 17.7887 21.7657 12.8333C21.7914 7.83944 25.8986 3.75789 30.8686 3.7927C33.2641 3.80915 35.5557 4.7728 37.2431 6.4732C38.9304 8.1736 39.8764 10.4726 39.8744 12.8681ZM31.5849 20.3259C35.5309 20.0126 38.2367 16.4569 38.2641 13.6009H36.8865V12.0987H38.2898C38.0956 8.65466 34.9923 5.588 31.5849 5.39381V6.77875H30.0607V5.38282C26.7761 5.47075 23.4438 8.8122 23.3632 12.117H24.7518V13.6009H23.3705C23.5537 17.0669 26.7486 20.183 30.0882 20.2948V18.9135H31.5849V20.3259Z" fill="#F9F9F9"/>
<path d="M26.6875 8.66553L30.3862 9.90025C31.1354 10.1512 31.8884 10.3894 32.6303 10.6568C32.7905 10.7151 32.9219 10.8333 32.9967 10.9866C33.669 12.9541 34.323 14.9289 34.9807 16.9019C34.9807 16.9276 34.9807 16.9587 34.9605 17.0375L33.9401 16.6986C32.317 16.1655 30.6811 15.6159 29.0653 15.0663C28.8872 15.0085 28.7391 14.8828 28.6532 14.7164C27.9845 12.7617 27.3378 10.7997 26.6875 8.83773C26.6823 8.78045 26.6823 8.72281 26.6875 8.66553ZM29.6186 12.879L30.8643 11.6461L29.0104 11.0361L29.6186 12.879ZM32.0349 12.835L30.813 14.0587L32.6449 14.6706L32.0349 12.835Z" fill="#F9F9F9"/>
</svg>
