<svg width="54" height="48" viewBox="0 0 54 48" fill="none" xmlns="http://www.w3.org/2000/svg">
<path d="M46.5862 45.1482C45.6505 43.5261 44.741 41.9521 43.8338 40.378C41.9176 37.0518 40.0018 33.7273 38.0864 30.4047C36.0529 26.8817 34.0159 23.3605 31.9755 19.8412C31.5781 19.1547 31.5896 18.765 32.0154 18.5098C32.4499 18.2491 32.8171 18.4453 33.2227 19.1498C33.3517 19.3744 33.485 19.5969 33.6359 19.8532C33.9829 19.6532 34.2972 19.4652 34.6196 19.2892C35.0771 19.0383 35.5018 19.1252 35.7051 19.4969C35.9166 19.8844 35.7783 20.2516 35.3127 20.5282C35.0093 20.708 34.7033 20.8829 34.3546 21.0857C34.5847 21.4956 34.7967 21.8825 35.017 22.2645C39.2702 29.6319 43.5182 37.0019 47.7612 44.3743C48.017 44.8203 48.316 44.746 48.674 44.7482C49.1407 44.7514 49.432 45.0176 49.4484 45.4286C49.4648 45.8396 49.1872 46.1675 48.7313 46.1621C47.8088 46.1506 47.0229 46.4944 46.2719 46.9819C44.911 47.8684 43.4222 48.0558 41.8821 47.6317C41.2705 47.4634 40.6906 47.1327 40.1375 46.8064C38.6531 45.932 37.1791 45.9057 35.7291 46.8283C33.6107 48.1755 31.5126 48.1947 29.3892 46.8529C27.8868 45.9025 26.3691 45.9063 24.8661 46.8573C22.7619 48.1887 20.6714 48.1832 18.5683 46.8458C17.0828 45.9014 15.5699 45.9003 14.0866 46.8458C12.0021 48.169 9.91706 48.2045 7.82764 46.8857C7.13244 46.4485 6.40663 46.1697 5.57261 46.167C5.084 46.167 4.79816 45.8516 4.81947 45.4199C4.83915 45.0111 5.1392 44.6995 5.60048 44.764C6.14702 44.8389 6.37001 44.5946 6.61759 44.1628C9.24245 39.5733 11.8817 34.9926 14.5353 30.4206C16.2613 27.431 17.9866 24.4414 19.7111 21.4518C19.7712 21.3475 19.8204 21.2371 19.8985 21.0868C19.5706 20.8927 19.2525 20.7102 18.9399 20.5233C18.4797 20.25 18.3453 19.8729 18.5639 19.4848C18.7721 19.1165 19.1919 19.0389 19.657 19.293C19.9669 19.463 20.2702 19.645 20.6265 19.8505C20.8189 19.5226 21.002 19.2094 21.1884 18.8979C21.4753 18.4174 21.8748 18.2764 22.2585 18.5153C22.6274 18.7454 22.6903 19.1356 22.4165 19.6084C20.2784 23.303 18.1392 26.9971 15.999 30.6906C13.6867 34.6971 11.3802 38.7043 9.07922 42.7123C8.61903 43.5124 8.15611 44.3104 7.69046 45.1171C8.96608 46.0462 10.2893 46.7277 11.9048 46.2927C12.3339 46.1724 12.7428 45.9891 13.1182 45.7489C15.2497 44.3978 17.3642 44.3869 19.5023 45.7451C20.9698 46.6775 22.4837 46.6895 23.9419 45.7412C25.37 44.8121 26.8932 44.5028 28.5284 44.9291C29.1132 45.0816 29.6805 45.3718 30.1987 45.6942C31.7798 46.672 33.3194 46.6665 34.8907 45.6751C36.8763 44.4224 38.9111 44.3743 40.9027 45.6314C42.5598 46.6769 44.1633 46.6906 45.7931 45.6226C46.0353 45.4636 46.2899 45.3242 46.5862 45.1482Z" fill="white"/>
<path d="M28.1779 19.4344C29.2311 19.7623 29.101 19.9399 29.1458 20.9844C29.2475 23.3891 29.3644 25.7912 29.4634 28.1949C29.4803 28.5971 29.6038 28.8884 29.9438 29.1787C31.0101 30.0958 31.3987 31.2856 31.2484 32.6421C31.2385 32.7317 31.221 32.8208 31.2046 32.9257C31.6364 33.0613 32.0108 33.24 31.9698 33.7488C31.9294 34.232 31.5561 34.3648 31.1161 34.4435V38.6617C31.5593 38.759 31.9796 38.8929 31.9725 39.4312C31.9654 39.9439 31.5785 40.0871 31.0942 40.1811V44.595C30.5876 44.3091 30.152 44.0856 29.7476 43.8189C29.6519 43.7555 29.6279 43.5456 29.6262 43.4062C29.6164 42.4962 29.6213 41.5862 29.6219 40.6735V40.1319H26.5667C26.0677 40.1319 25.5676 40.151 25.0697 40.1264C24.721 40.1095 24.6325 40.2401 24.6363 40.5544C24.6532 41.495 24.6336 42.4361 24.6489 43.3767C24.6538 43.6565 24.5707 43.8303 24.2996 43.9593C23.9444 44.1293 23.6115 44.3419 23.1918 44.5829V40.1926C22.6999 40.0882 22.278 39.9504 22.2927 39.4105C22.3064 38.9082 22.6753 38.7404 23.147 38.6825V34.449C22.7158 34.3664 22.3179 34.2369 22.2922 33.7275C22.2681 33.2422 22.6168 33.0624 22.9852 32.958C23.0103 32.4295 23.0082 31.9256 23.0639 31.4277C23.1678 30.4986 23.6405 29.7394 24.3729 29.1382C24.6795 28.8863 24.7888 28.5993 24.8035 28.2222C24.8992 25.7715 25.0167 23.3225 25.1211 20.8723C25.1604 19.9487 25.061 19.7279 26.0469 19.4748L26.858 0.307062C26.858 0.278072 26.8695 0.250269 26.89 0.22977C26.9105 0.20927 26.9383 0.197754 26.9673 0.197754C26.9963 0.197754 27.0241 0.20927 27.0446 0.22977C27.0651 0.250269 27.0766 0.278072 27.0766 0.307062L28.1779 19.4344ZM26.6181 20.8871C26.5951 21.2516 26.5678 21.5877 26.553 21.9255C26.4437 24.3423 26.3368 26.7591 26.2322 29.1759C26.218 29.5066 26.1081 29.7126 25.766 29.8864C24.7888 30.3882 24.2903 31.5572 24.5117 32.6137C24.5696 32.8869 24.6964 32.9891 24.9981 32.9859C26.4137 32.9713 27.8292 32.9713 29.2447 32.9859C29.5677 32.9891 29.6978 32.8826 29.7541 32.5847C29.9678 31.4474 29.4535 30.4215 28.3484 29.7766C28.2156 29.699 28.0719 29.5202 28.0642 29.382C27.9604 27.4898 27.8817 25.5966 27.7909 23.704C27.7472 22.7699 27.6948 21.8364 27.6461 20.8865L26.6181 20.8871ZM24.6817 34.4255V38.6808H29.5738V34.4255H24.6817Z" fill="white"/>
<path d="M26.4209 42.0841C26.4209 41.8228 26.4029 41.5605 26.4253 41.3014C26.4351 41.1227 26.5136 40.9547 26.6444 40.8325C26.7752 40.7103 26.9481 40.6433 27.1271 40.6456C27.5003 40.6456 27.8108 40.9013 27.8299 41.2938C27.8577 41.8148 27.8568 42.337 27.8272 42.858C27.8223 42.9468 27.7999 43.0338 27.7611 43.114C27.7223 43.1941 27.6681 43.2657 27.6014 43.3247C27.5348 43.3837 27.457 43.4288 27.3728 43.4575C27.2886 43.4862 27.1995 43.4979 27.1107 43.492C26.7172 43.4712 26.4838 43.2433 26.4329 42.8656C26.3985 42.6093 26.4264 42.3448 26.4264 42.0841H26.4209Z" fill="white"/>
<path d="M26.4235 36.493C26.4235 36.2317 26.4038 35.9688 26.4284 35.7103C26.4386 35.5312 26.5188 35.3633 26.6517 35.2428C26.7847 35.1224 26.9596 35.059 27.1389 35.0665C27.5149 35.0703 27.815 35.3261 27.8346 35.7224C27.8606 36.2287 27.8606 36.736 27.8346 37.2423C27.8133 37.65 27.557 37.8861 27.1509 37.9167C26.7765 37.9457 26.4655 37.6435 26.4311 37.2297C26.4071 36.986 26.4235 36.7384 26.4235 36.493Z" fill="white"/>
<path d="M53.3067 44.9589L34.5423 17.6636L32.1348 18.9529" stroke="white" stroke-width="1.2" stroke-linecap="round" stroke-linejoin="round"/>
<path d="M0.630859 45.6178L19.8658 17.5835L22.0957 18.8804" stroke="white" stroke-width="1.2" stroke-linecap="round" stroke-linejoin="round"/>
</svg>
