<svg width="18" height="18" viewBox="0 0 18 18" fill="none" xmlns="http://www.w3.org/2000/svg">
<path d="M17.5265 2.80471L9.21886 0.035499C9.07674 -0.011833 8.92311 -0.011833 8.78098 0.035499L0.486688 2.80038L0.485823 2.80064L0.473361 2.80479C0.470938 2.80566 0.468775 2.80696 0.466438 2.80782C0.436422 2.81812 0.407159 2.8305 0.378862 2.84486C0.37566 2.84659 0.372285 2.84789 0.369083 2.84962C0.3411 2.86456 0.31418 2.88142 0.288517 2.90007C0.282888 2.90414 0.27732 2.90829 0.271815 2.91253C0.24681 2.93143 0.223103 2.95198 0.200854 2.97406C0.198864 2.97622 0.197046 2.97847 0.195056 2.98055C0.174567 3.0019 0.155461 3.02453 0.137855 3.04831C0.13422 3.05316 0.130499 3.05783 0.127037 3.06276C0.108869 3.08844 0.0924752 3.11533 0.0779704 3.14324C0.0757204 3.14757 0.0738166 3.1519 0.0716532 3.15622C0.0581161 3.1836 0.046408 3.21184 0.0366055 3.24077C0.0357401 3.24345 0.0345285 3.24605 0.0336632 3.24882C0.023891 3.27954 0.0162858 3.31092 0.0109037 3.34271C0.00977871 3.34937 0.00882681 3.35604 0.0078749 3.36261C0.00289599 3.39536 0.000264339 3.42841 0 3.46153V10.3845C0 10.5682 0.0729387 10.7442 0.20277 10.8741C0.332602 11.0039 0.508692 11.0768 0.692302 11.0768C0.875912 11.0768 1.052 11.0039 1.18183 10.8741C1.31166 10.7442 1.3846 10.5682 1.3846 10.3845V4.4221L4.29097 5.39088C3.52051 6.635 3.27397 8.13356 3.60527 9.55893C3.93657 10.9843 4.81875 12.2205 6.05894 12.9973C4.4075 13.6217 2.99829 14.7567 2.03623 16.2371C1.98534 16.3132 1.95005 16.3987 1.93242 16.4886C1.9148 16.5784 1.91517 16.6709 1.93354 16.7606C1.9519 16.8504 1.98789 16.9356 2.0394 17.0113C2.09092 17.087 2.15695 17.1517 2.23367 17.2018C2.31039 17.2518 2.39627 17.2861 2.48634 17.3027C2.5764 17.3193 2.66887 17.3178 2.75837 17.2984C2.84788 17.279 2.93265 17.2421 3.00777 17.1897C3.08289 17.1373 3.14688 17.0705 3.19601 16.9933C3.82496 16.027 4.68521 15.2331 5.6987 14.6835C6.7122 14.1339 7.84688 13.8461 8.99979 13.8461C10.1527 13.8461 11.2874 14.1339 12.3009 14.6835C13.3144 15.2331 14.1746 16.027 14.8036 16.9933C14.853 17.0699 14.9171 17.1361 14.9921 17.1879C15.0672 17.2397 15.1518 17.2762 15.241 17.2952C15.3302 17.3143 15.4223 17.3155 15.512 17.2988C15.6016 17.2822 15.6872 17.248 15.7636 17.1981C15.84 17.1483 15.9058 17.0839 15.9572 17.0086C16.0087 16.9332 16.0447 16.8485 16.0633 16.7592C16.0818 16.6699 16.0826 16.5778 16.0655 16.4882C16.0483 16.3986 16.0137 16.3132 15.9634 16.2371C15.0014 14.7567 13.5922 13.6218 11.9408 12.9974C13.181 12.2206 14.0632 10.9844 14.3945 9.55898C14.7258 8.13359 14.4793 6.63501 13.7088 5.39088L17.5265 4.11835C17.6644 4.07242 17.7843 3.98427 17.8693 3.86638C17.9543 3.7485 18 3.60685 18 3.46153C18 3.3162 17.9543 3.17456 17.8693 3.05667C17.7843 2.93879 17.6644 2.85063 17.5265 2.80471ZM13.1537 8.30764C13.1539 8.96432 12.9984 9.61169 12.6999 10.1966C12.4014 10.7816 11.9685 11.2874 11.4367 11.6726C10.9049 12.0579 10.2893 12.3115 9.6405 12.4128C8.99168 12.5141 8.32808 12.4601 7.70416 12.2552C7.08025 12.0504 6.51379 11.7005 6.05126 11.2344C5.58874 10.7682 5.24332 10.199 5.04336 9.57353C4.8434 8.94802 4.7946 8.28403 4.90094 7.63601C5.00729 6.98799 5.26576 6.37442 5.65515 5.84564L8.78098 6.88755C8.92311 6.93489 9.07674 6.93489 9.21886 6.88755L12.3447 5.84564C12.8708 6.55862 13.1544 7.42155 13.1537 8.30764ZM12.3491 4.38462C12.3474 4.38523 12.3456 4.38566 12.3439 4.38635L8.99992 5.50096L5.65585 4.38635C5.65412 4.38566 5.65238 4.38514 5.65065 4.38462L2.88162 3.46153L8.99992 1.42209L15.1183 3.46153L12.3491 4.38462Z" fill="#40A9FF"/>
</svg>
