<svg width="20" height="20" viewBox="0 0 20 20" fill="none" xmlns="http://www.w3.org/2000/svg">
<path fill-rule="evenodd" clip-rule="evenodd" d="M1.40619 8.0815H7.96875L5.78118 1.82044C4.58326 2.3992 3.54166 3.29363 2.76041 4.39853C2.03125 5.45081 1.56244 6.71354 1.40619 8.0815ZM3.64574 16.2367C3.43741 16.0262 3.12489 15.8684 2.81239 15.8684C2.18739 15.8684 1.66655 16.3945 1.66655 17.0259C1.66655 17.6572 2.18739 18.1834 2.81239 18.1834C3.43739 18.1834 3.95823 17.6572 3.95823 17.0259C3.95823 16.7102 3.80199 16.4471 3.64574 16.2367ZM16.0416 16.2367C15.8333 16.0262 15.5208 15.8684 15.2083 15.8684C14.8958 15.8684 14.6353 15.9736 14.3749 16.1841C14.1666 16.3945 14.0104 16.7102 14.0104 17.0259C14.0104 17.3416 14.1666 17.6046 14.3749 17.8677C14.5832 18.0782 14.8958 18.1834 15.2083 18.1834C15.5208 18.1834 15.8333 18.0782 16.0416 17.8677C16.2499 17.6572 16.4062 17.3416 16.4062 17.0259C16.3542 16.7102 16.2499 16.4471 16.0416 16.2367ZM18.4895 4.13546C18.4375 4.08284 18.3334 4.08284 18.2292 4.08284C18.1771 4.08284 18.0729 4.08284 18.0208 4.13546C17.9687 4.18807 17.8645 4.18807 17.8124 4.2933C17.7603 4.34592 17.7083 4.45114 17.6562 4.50376C17.6041 4.55637 17.604 4.66159 17.604 4.76682C17.604 4.97728 17.6562 5.13512 17.8124 5.24035C17.8645 5.29296 17.9687 5.34558 18.0208 5.39819C18.0729 5.4508 18.1771 5.45081 18.2292 5.45081C18.4375 5.45081 18.5936 5.39819 18.7499 5.24035C18.802 5.18774 18.8541 5.13512 18.9061 5.02989C18.9582 4.97728 18.9583 4.87205 18.9583 4.81944C18.9583 4.71421 18.9582 4.60898 18.9061 4.55637C18.8541 4.50375 18.8541 4.39853 18.7499 4.34591C18.6457 4.18807 18.5937 4.13546 18.4895 4.13546ZM15.9895 9.5547V10.87C15.9895 11.0805 15.7812 11.291 15.5729 11.291C15.3645 11.291 15.1041 11.0805 15.1041 10.87V9.5547H9.06246H9.01032H1.45833C1.61458 11.3962 2.44782 13.0272 3.64574 14.2373C5.05199 15.6579 6.92699 16.4997 9.01032 16.4997C11.1457 16.4997 13.0208 15.6579 14.427 14.2373C15.677 13.0272 16.4584 11.3962 16.6146 9.5547H15.9895ZM18.1249 8.8181C18.1249 11.2383 17.1874 13.4481 15.677 15.0792C16.0416 15.1318 16.4062 15.3422 16.6666 15.6053C17.0312 15.9736 17.2916 16.4997 17.2916 17.0785C17.2916 17.6046 17.0833 18.1308 16.6666 18.4991C16.302 18.8674 15.8333 19.0778 15.2604 19.0778C14.7396 19.0778 14.1665 18.8674 13.854 18.4991C13.4895 18.1308 13.2291 17.6046 13.2291 17.0785L13.2812 16.9733C12.0312 17.6572 10.5729 17.9729 9.06246 17.9729C7.60412 17.9729 6.14574 17.6046 4.94783 16.9733V17.0785C4.94783 18.1834 4.01041 19.1304 2.91666 19.1304C1.82291 19.1304 0.885328 18.1834 0.885328 17.0785C0.885328 16.0788 1.56251 15.2896 2.44793 15.0265C0.937507 13.3955 0 11.1857 0 8.76549V8.71288C0 6.76616 0.624988 4.97728 1.61457 3.50409L1.66655 3.45147C2.7603 1.87305 4.27075 0.71555 6.09367 0.0315683C6.45825 -0.0736596 6.92701 0.0841831 7.08326 0.505095L9.68743 7.97627H15.2604V7.39753C15.2604 6.76616 15.4688 6.1874 15.7813 5.66126C15.9896 5.29296 16.4062 4.92467 16.8228 4.6616C16.8228 4.45114 16.875 4.2933 16.9271 4.08284C16.9792 3.87238 17.1353 3.71455 17.2916 3.5567C17.3957 3.39886 17.6041 3.29364 17.8124 3.18841C18.0208 3.13579 18.1771 3.08318 18.3854 3.08318C18.5938 3.08318 18.8021 3.13579 19.0104 3.18841C19.2187 3.24102 19.375 3.39886 19.5313 3.5567C19.6875 3.71455 19.7916 3.87238 19.8957 4.08284C19.9478 4.2933 20 4.45114 20 4.71421C20 4.92467 19.9478 5.08251 19.8957 5.29296C19.8436 5.50342 19.6875 5.66126 19.5313 5.81911C19.2709 6.13479 18.8542 6.29263 18.3854 6.29263C18.1771 6.29263 18.0208 6.24002 17.8124 6.1874C17.6041 6.13479 17.4478 5.97695 17.2916 5.81911C17.2395 5.76649 17.1354 5.66126 17.0833 5.60865C16.875 5.76649 16.6145 5.97695 16.4582 6.24002C16.2499 6.60831 16.0937 7.02923 16.0937 7.45014V8.02889H17.4999C17.7604 8.0815 18.1249 8.34457 18.1249 8.8181Z" fill="#40A9FF"/>
</svg>
