<svg width="21" height="20" viewBox="0 0 21 20" fill="none" xmlns="http://www.w3.org/2000/svg">
<path fill-rule="evenodd" clip-rule="evenodd" d="M8.41624 12.1909C8.41624 12.177 8.41513 12.1632 8.41402 12.1495C8.4133 12.1406 8.41258 12.1317 8.41218 12.1228C8.38409 11.621 8.35651 11.119 8.32944 10.6168L8.32173 10.4753C8.25663 9.28135 8.18953 8.05061 8.11726 6.83959C8.05787 5.8401 7.62386 5.1066 6.82741 4.65685C7.15279 3.52437 6.86751 2.53655 5.97766 1.71777C5.96756 1.69509 5.96121 1.67091 5.95888 1.64619C5.90051 1.00863 5.59086 0.529442 5.03959 0.224873C4.91363 0.158907 4.78131 0.105845 4.64467 0.0664975L4.64159 0.0655197C4.58842 0.048624 4.5382 0.0326686 4.49239 0.015736L4.44822 0H3.90152L3.85787 0.015736C3.81472 0.0314721 3.77056 0.0461929 3.72589 0.0609137C3.60981 0.0956218 3.49688 0.140113 3.38832 0.193909C2.81371 0.494924 2.4797 0.991878 2.42386 1.63046C2.42442 1.65659 2.41872 1.68249 2.40724 1.70598C2.39577 1.72946 2.37884 1.74987 2.35787 1.76548C1.95225 2.11635 1.65916 2.57909 1.51532 3.09576C1.37148 3.61243 1.38328 4.16006 1.54924 4.67005L1.52741 4.68477C1.38938 4.77317 1.25852 4.87229 1.13604 4.98122C0.628426 5.45533 0.346193 6.08934 0.305076 6.86548C0.226904 8.35431 0.143147 9.86802 0.0619289 11.3325L0.0299492 11.9107C0.0275767 11.9222 0.0245257 11.9335 0.0208122 11.9447C0.0158663 11.9615 0.0114023 11.9788 0.00742026 11.9942L0.00741662 11.9942L0.0074154 11.9942L0.0071066 11.9954L0 12.0244V12.6447L0.0629442 12.7162C0.147716 12.8152 0.304569 12.9949 0.549746 12.9949C0.615125 12.9944 0.679899 12.9823 0.741117 12.9594C0.903046 12.9005 1.10051 12.7563 1.11929 12.4076L1.1736 11.403C1.2533 9.91421 1.33604 8.37411 1.42741 6.86091C1.46041 6.30761 1.68477 5.90812 2.11269 5.64264C2.66345 6.26294 3.40152 6.60457 4.19645 6.60711C4.99137 6.60964 5.73503 6.26447 6.28426 5.63959C6.72183 5.89898 6.96193 6.30508 6.99797 6.84721C7.0533 7.67817 7.09695 8.52487 7.13858 9.34365C7.15888 9.73283 7.17936 10.122 7.2 10.5112C7.23959 11.2345 7.27614 11.869 7.31167 12.4508C7.33147 12.7772 7.58376 13.0122 7.89695 12.9954C8.19645 12.9802 8.41878 12.7416 8.42538 12.4294C8.4264 12.3447 8.42132 12.2665 8.41624 12.1909ZM5.59797 2.98274C5.33452 2.93756 5.0797 2.84061 4.80863 2.72893C4.54569 2.62183 4.29137 2.4934 4.07716 2.38173C3.97763 2.32714 3.86629 2.29769 3.75279 2.29594C3.63791 2.2973 3.52533 2.32825 3.42589 2.38579C3.38866 2.40589 3.3528 2.42381 3.3169 2.44174L3.27766 2.46142C3.55864 2.28618 3.88209 2.19088 4.2132 2.18579C4.49219 2.19251 4.76506 2.26896 5.00693 2.40817C5.24881 2.54737 5.45199 2.74489 5.59797 2.98274ZM5.14112 5.18173C4.8917 5.35778 4.5981 5.46075 4.29335 5.47904C3.9886 5.49734 3.6848 5.43024 3.4161 5.28529C3.14741 5.14034 2.92449 4.9233 2.77242 4.65857C2.62036 4.39384 2.54517 4.09193 2.55533 3.7868C3.00863 3.76751 3.40711 3.62589 3.74721 3.47868C3.75923 3.48271 3.77094 3.48763 3.78223 3.4934C4.31929 3.75533 4.90609 4.01015 5.55888 4.10254C5.64569 4.11472 5.72995 4.1203 5.81675 4.12437C5.74213 4.55939 5.5198 4.90761 5.13959 5.18173H5.14112ZM7.34464 17.5397C7.29996 17.1336 7.25885 16.7173 7.21925 16.3158L7.16849 15.8011C7.13228 15.4387 7.09573 15.0764 7.05885 14.7143C6.97458 13.8864 6.88778 13.03 6.80504 12.1874C6.78372 11.9698 6.76122 11.752 6.73753 11.5341L6.73652 11.5246C6.65054 10.7154 6.56152 9.87758 6.5959 9.05541C6.60492 8.84753 6.6024 8.63921 6.59996 8.43749L6.59946 8.39551V8.22495C6.60183 8.14084 6.58738 8.05711 6.55696 7.97866C6.52654 7.90021 6.48075 7.82862 6.4223 7.7681C6.37092 7.7185 6.31027 7.67952 6.24381 7.65339C6.17735 7.62726 6.10639 7.61449 6.03499 7.61582C5.70606 7.61937 5.4822 7.8681 5.4822 8.23206V9.2417V9.58333H2.94413V9.21328V8.19246C2.94108 7.8615 2.70961 7.61886 2.39337 7.61582C2.0888 7.61176 1.8487 7.8478 1.83042 8.17419V8.25896V8.56353C1.83042 9.45541 1.83042 10.3772 1.72179 11.2752C1.62027 12.1219 1.53651 12.9838 1.45631 13.8173C1.42247 14.176 1.38727 14.5349 1.35073 14.894L1.29337 15.4645C1.22128 16.1752 1.14667 16.9138 1.0756 17.6386C1.05529 17.8508 1.09946 18.0189 1.20758 18.1392C1.3157 18.2595 1.48118 18.3249 1.70758 18.3249H1.97966V18.4407L1.97994 18.6305C1.98046 18.8575 1.98095 19.0766 1.97458 19.297C1.96646 19.5919 2.06545 19.8046 2.27915 19.9544L2.34413 19.9996H6.08271L6.14819 19.9534C6.3624 19.8036 6.46392 19.5808 6.44971 19.2935C6.44119 19.117 6.44306 18.9426 6.44507 18.7559L6.44514 18.7488V18.5067V18.3249H6.63956C6.8426 18.3249 7.07357 18.3026 7.22128 18.1371C7.369 17.9716 7.36697 17.7427 7.34464 17.5397ZM3.65073 18.8686H3.1091V18.3407H3.65073V18.8686ZM4.7822 18.8711V18.3341H5.3157V18.8711H4.7822ZM2.24413 17.196L2.89032 10.7168H5.5355L6.18372 17.1965L2.24413 17.196ZM18.2575 19.6821C18.3085 19.5763 18.3328 19.4598 18.3284 19.3425C18.3249 16.4384 18.3249 13.4856 18.3249 10.6318V8.26889C18.3249 8.05316 18.265 7.88463 18.1477 7.76788C18.0976 7.71823 18.0381 7.67916 17.9726 7.653C17.9071 7.62684 17.837 7.61412 17.7665 7.61559C17.3569 7.6161 17.2081 7.96636 17.2081 8.26636V18.8679H16.1929V12.3136V12.2699C16.1967 12.2054 16.1933 12.1407 16.1827 12.077C16.1289 11.7882 15.9188 11.609 15.634 11.609C15.3487 11.609 15.1386 11.7887 15.0853 12.078C15.0751 12.1415 15.0719 12.2058 15.0756 12.2699V12.3136V18.8704H14.0604V8.34402V8.29326C14.0644 8.22543 14.0612 8.15736 14.0508 8.09021C14.0304 7.95696 13.9644 7.83493 13.864 7.74504C13.7625 7.66018 13.6337 7.61508 13.5015 7.61813C13.2162 7.61813 13.0056 7.79834 12.9523 8.08869C12.9424 8.14771 12.9392 8.20764 12.9426 8.26737V8.30544V10.3628L12.9426 11.2421V11.2436C12.9427 13.8985 12.9427 16.6218 12.9391 19.3044C12.9391 19.4933 12.9716 19.7658 13.2437 19.9547L13.3086 19.9999H17.9696L18.036 19.9491C18.1305 19.8795 18.2065 19.7878 18.2575 19.6821ZM11.723 10.7132L11.7274 10.7162C11.761 10.7215 11.7949 10.724 11.8289 10.7239C12.1147 10.7239 12.3249 10.5426 12.3772 10.2533C12.3871 10.19 12.3903 10.1259 12.3868 10.0619V10.0183V8.88782V6.36447C12.3878 6.05783 12.4857 5.75936 12.6665 5.51167C12.8473 5.26399 13.1017 5.07975 13.3934 4.98528C13.9929 5.63452 14.7827 5.98985 15.6213 5.98985H15.6274C16.4645 5.98985 17.2518 5.63046 17.8426 4.98173C18.4731 5.1736 18.8812 5.73249 18.8822 6.40812V11.7381C18.8822 11.8736 18.8822 12.2345 19.2507 12.367C19.3158 12.3908 19.3845 12.4032 19.4538 12.4036C19.6096 12.4036 19.7995 12.3355 19.9614 12.0802L20.001 12.0178V6.08426L19.9919 6.0533C19.9792 6.00254 19.9675 5.95178 19.9558 5.90102C19.929 5.7775 19.8952 5.65564 19.8543 5.53604C19.7381 5.19515 19.5515 4.8825 19.3067 4.6184C19.0618 4.3543 18.7641 4.14464 18.433 4.00305L18.4558 3.91624C18.519 3.69548 18.5637 3.46982 18.5893 3.24162C18.7188 1.70812 17.7533 0.392893 16.2406 0.0436548L16.2249 0.035533C16.2122 0.0294416 16.2 0.0238579 16.1873 0.0187817L16.1421 0H15.098L15.0589 0.013198L15.0132 0.0294416C14.9951 0.0365412 14.9766 0.0426417 14.9579 0.0477157C14.5416 0.141881 14.1503 0.323911 13.8102 0.581611C13.47 0.839311 13.1889 1.16673 12.9856 1.54193C12.7822 1.91713 12.6614 2.33145 12.6313 2.75714C12.6011 3.18282 12.6623 3.61003 12.8107 4.01015C11.7878 4.49746 11.269 5.33249 11.269 6.49746V10.0381V10.0766C11.2656 10.1367 11.2688 10.197 11.2787 10.2563C11.2973 10.3656 11.346 10.4676 11.4193 10.5508L11.4255 10.5533C11.504 10.6384 11.6087 10.6947 11.723 10.7132ZM17.4903 3.00711V2.97107V2.97056C17.4843 2.48576 17.2909 2.0221 16.9508 1.67659C16.6107 1.33107 16.1501 1.13047 15.6655 1.11675H15.6294C15.3827 1.11481 15.1381 1.16149 14.9094 1.25412C14.6808 1.34675 14.4726 1.48352 14.2969 1.65661C14.1211 1.8297 13.9811 2.03573 13.885 2.26292C13.7888 2.49011 13.7384 2.73402 13.7365 2.98071C13.7223 3.98833 14.5579 4.85482 15.5614 4.87208C15.8112 4.87884 16.0598 4.83569 16.2927 4.74516C16.5256 4.65463 16.7381 4.51854 16.9177 4.34486C17.0973 4.17118 17.2405 3.9634 17.3389 3.7337C17.4372 3.50399 17.4887 3.25697 17.4903 3.00711ZM12.3889 19.3614C12.3902 19.4739 12.365 19.5851 12.3152 19.686C12.2655 19.7869 12.1926 19.8746 12.1026 19.9421L12.0305 19.9999H11.6315L11.5665 19.9548C11.2944 19.7654 11.262 19.4928 11.262 19.3045C11.267 16.9614 11.266 14.5781 11.262 12.2741V12.1142C11.2651 12.0336 11.2591 11.9529 11.2442 11.8736C11.2222 11.7753 11.1654 11.6882 11.0842 11.6286C11.003 11.569 10.9029 11.5408 10.8026 11.5492C10.7018 11.5568 10.6067 11.5992 10.5337 11.6691C10.4606 11.739 10.4141 11.8321 10.4021 11.9325C10.4018 11.9374 10.4018 11.9423 10.4021 11.9472C10.4021 11.966 10.4021 11.9842 10.3985 12.003C10.363 12.3274 10.1168 12.5518 9.81474 12.536C9.51271 12.5203 9.28784 12.2736 9.28479 11.9482C9.28587 11.7285 9.33565 11.5117 9.43053 11.3135C9.52541 11.1153 9.66304 10.9406 9.83352 10.802C10.0032 10.6549 10.2034 10.5473 10.4197 10.487C10.636 10.4267 10.863 10.4152 11.0843 10.4533C11.1969 10.4738 11.3071 10.5057 11.4132 10.5487C11.4935 10.638 11.6025 10.6966 11.7213 10.7142C11.9293 10.8573 12.0987 11.0494 12.2146 11.2736C12.3305 11.4978 12.3893 11.7471 12.3858 11.9995V15.2111C12.3858 16.5715 12.3858 17.9781 12.3889 19.3614Z" fill="#40A9FF"/>
</svg>
