<svg width="15" height="20" viewBox="0 0 15 20" fill="none" xmlns="http://www.w3.org/2000/svg">
<path fill-rule="evenodd" clip-rule="evenodd" d="M13.5284 10.331C14.0562 12.026 14.1585 13.51 14.1728 13.7638C14.2175 14.0978 14.4261 16.1696 12.988 17.8594C11.7807 19.2798 9.79597 20 7.0928 20C4.5808 20 2.68218 19.3145 1.44902 17.9604C-0.131792 16.2253 -0.00911376 14.0284 0.00975973 13.7851C0.0188921 13.6089 0.111433 12.053 0.673072 10.2798C1.02071 9.18001 1.47763 8.22233 2.03135 7.43087C2.55038 6.69023 3.15554 6.09511 3.83712 5.65524C3.36833 5.11308 2.84992 4.50121 2.53515 3.79224C2.19421 3.02421 2.19908 2.33563 2.55037 1.68724C2.97351 0.905814 3.84838 0.398969 4.77927 0.395925C5.21093 0.392881 5.62371 0.495163 6.07637 0.716166C6.18604 0.76981 6.28667 0.825204 6.38425 0.878922L6.39052 0.882374L6.41518 0.896073C6.55505 0.972695 6.56493 0.969747 6.82826 0.891172L6.82918 0.890898L6.83466 0.889376C7.10954 0.807185 7.38351 0.69851 7.61547 0.602925L7.68214 0.575832C8.07513 0.41419 8.48182 0.247068 8.92566 0.13748C9.53661 -0.0122901 10.4282 -0.152319 11.1284 0.36518C11.5198 0.65437 11.7673 1.11129 11.8434 1.68663C11.9 2.12424 11.8561 2.56899 11.715 2.98707C11.5077 3.57702 11.2197 4.17732 10.7817 4.93317C10.6438 5.17122 10.5004 5.41079 10.3482 5.65432C11.0529 6.10911 11.6757 6.7295 12.2066 7.50575C12.7454 8.29387 13.1902 9.24455 13.5284 10.331ZM7.0928 18.6301C9.37588 18.6301 11.0075 18.0731 11.9439 16.9726C13.0498 15.6733 12.8265 14.0307 12.8147 13.9436C12.8144 13.9416 12.8142 13.9404 12.8142 13.9401L12.8078 13.9005L12.806 13.8606C12.8036 13.804 12.5031 8.1094 9.08974 6.52098L8.37132 6.18613L8.80633 5.52403C9.09978 5.07838 9.35823 4.66072 9.5978 4.24703C9.9914 3.56819 10.2462 3.03913 10.424 2.5332C10.5591 2.14598 10.5056 1.60809 10.3156 1.46776C10.1954 1.37643 9.91378 1.30581 9.25412 1.46776C8.90831 1.55269 8.56584 1.69363 8.20299 1.8434L8.13662 1.87049C7.83896 1.99633 7.53519 2.10717 7.22643 2.2026L7.22035 2.20443C6.8724 2.30945 6.396 2.45009 5.7543 2.09637L5.72904 2.08267C5.64015 2.03366 5.55613 1.98739 5.47455 1.94751C5.21732 1.82118 5.00515 1.76486 4.7881 1.76486H4.78293C4.35858 1.76638 3.93575 2.0023 3.7531 2.33898C3.63347 2.56151 3.59207 2.79925 3.78568 3.23547C4.02885 3.78443 4.48088 4.30664 4.91933 4.81316L4.92783 4.82298C4.98708 4.89116 5.04543 4.95874 5.10286 5.02571C5.20606 5.14626 5.31443 5.27016 5.42523 5.39496L6.05354 6.10028L5.18779 6.47806C4.40546 6.81961 3.72023 7.40408 3.15159 8.21594C2.67792 8.89204 2.28219 9.72491 1.97778 10.6917C1.44902 12.366 1.37778 13.8454 1.37778 13.86L1.37535 13.8935C1.37413 13.9087 1.23745 15.7078 2.47366 17.0493C3.43743 18.0983 4.99236 18.6301 7.0928 18.6301ZM7.9461 8.37616C8.90155 8.37636 9.66461 8.62537 10.2353 9.12318C10.8059 9.6214 11.0913 10.2833 11.0913 11.1088C11.0913 11.9498 10.8197 12.6094 10.2767 13.0875C9.73361 13.5656 8.97856 13.8106 8.01155 13.8224H6.13273V14.4525H8.04717V15.6656H6.13273V17.033H4.63441V15.6656H3.41677V14.4525H4.63441V13.8224H3.41677V12.6096H4.63441V8.37616H7.9461ZM7.92236 12.6096C8.46137 12.6096 8.87354 12.4847 9.15888 12.2349C9.44441 11.9852 9.58729 11.6126 9.58749 11.1171C9.58789 10.6732 9.44817 10.3106 9.16831 10.0291C8.88846 9.74763 8.50287 9.601 8.01155 9.58923H6.13273V12.6096H7.92236Z" fill="#40A9FF"/>
</svg>
