<svg width="20" height="16" viewBox="0 0 20 16" fill="none" xmlns="http://www.w3.org/2000/svg">
<path fill-rule="evenodd" clip-rule="evenodd" d="M9.45354 13.4298V2.84738C6.77594 1.07443 5.62844 1.62856 4.37161 2.23801C3.49729 2.62585 2.67758 2.95824 1.47539 3.06905V13.8731C2.40436 13.8177 3.11477 13.4851 3.77051 13.2081C5.24592 12.4324 6.66665 11.823 9.45354 13.4298ZM10.3825 2.84738V13.4298C13.1148 11.823 14.5355 12.4324 16.1202 13.2081C16.776 13.4851 17.4864 13.8177 18.4153 13.8731V3.06905C17.2131 3.01365 16.3388 2.62585 15.5191 2.23801C14.2076 1.57315 13.0601 1.07443 10.3825 2.84738ZM2.62293 5.34068C3.22402 5.17446 3.71584 4.95275 4.26229 4.73113C5.30055 4.23249 6.3388 3.78932 7.97815 4.45418C8.19672 4.56499 8.46994 4.45413 8.52459 4.23251C8.63388 4.01089 8.52458 3.73394 8.306 3.62313C6.28414 2.79206 5.08196 3.34604 3.82512 3.90009C3.38796 4.12171 2.89618 4.28796 2.34973 4.45418C2.13115 4.50958 1.96723 4.73123 2.02188 5.00826C2.07652 5.22988 2.40435 5.39608 2.62293 5.34068ZM2.62293 12.2108C3.22402 12.0446 3.71584 11.8231 4.26229 11.6015C5.30055 11.1028 6.3388 10.6595 7.97815 11.3243C8.19672 11.4351 8.46994 11.3245 8.52459 11.1028C8.63388 10.8812 8.52458 10.6041 8.306 10.4933C6.28414 9.66222 5.08196 10.2164 3.82512 10.7704C3.38796 10.992 2.89618 11.1581 2.34973 11.3243C2.13115 11.3797 1.96723 11.6014 2.02188 11.8784C2.07652 12.1 2.40435 12.2108 2.62293 12.2108ZM2.62293 9.88392C3.22402 9.71771 3.71584 9.496 4.26229 9.27438C5.30055 8.77574 6.3388 8.33245 7.97815 9.05271C8.19672 9.10812 8.5246 8.99738 8.57924 8.77576C8.68853 8.55414 8.57924 8.27708 8.36066 8.22167C6.3388 7.33519 5.13661 7.88929 3.87978 8.44334C3.44262 8.66496 2.95084 8.88661 2.40439 8.99742C2.18581 9.05283 2.02185 9.32989 2.07649 9.55151C2.07649 9.82853 2.40435 9.99473 2.62293 9.88392ZM2.62293 7.6123C3.22402 7.50149 3.71584 7.22438 4.26229 7.00276C5.30055 6.50411 6.3388 6.06099 7.97815 6.78126C8.19672 6.83666 8.5246 6.72581 8.57924 6.55959C8.68853 6.33797 8.57924 6.00545 8.36066 5.95005C6.3388 5.11897 5.13661 5.61767 3.87978 6.17172C3.44262 6.39334 2.95084 6.61499 2.40439 6.7258C2.18581 6.7812 2.02185 7.05826 2.07649 7.27988C2.07649 7.5015 2.40435 7.6677 2.62293 7.6123ZM17.4863 4.39872C16.9399 4.2325 16.4481 4.01102 16.0109 3.8448C14.7541 3.29075 13.5519 2.7366 11.5301 3.56768C11.3115 3.67849 11.2022 3.9556 11.3115 4.17722C11.4208 4.39884 11.694 4.56493 11.9126 4.39872C13.5519 3.73386 14.5355 4.1772 15.6284 4.67584C16.1202 4.89746 16.6667 5.119 17.2678 5.28522C17.4863 5.34062 17.7596 5.22977 17.8142 4.89734C17.8689 4.73113 17.7049 4.45412 17.4863 4.39872ZM17.4863 11.269C16.9399 11.1028 16.4481 10.8812 16.0109 10.715C14.7541 10.1609 13.5519 9.60676 11.5301 10.4378C11.3115 10.5486 11.2022 10.8258 11.3115 11.0474C11.4208 11.269 11.694 11.4353 11.9126 11.269C13.5519 10.6042 14.5355 11.0474 15.6284 11.546C16.1202 11.7676 16.6667 11.9893 17.2678 12.1555C17.4863 12.211 17.7596 12.1001 17.8142 11.7677C17.8689 11.6015 17.7049 11.3245 17.4863 11.269ZM17.4863 8.99742C16.9399 8.88661 16.4481 8.60956 16.0109 8.44334C14.7541 7.88929 13.5519 7.33519 11.5301 8.22167C11.3115 8.27708 11.2022 8.60954 11.3115 8.77576C11.4208 8.99738 11.694 9.16352 11.9126 9.05271C13.5519 8.33245 14.5355 8.83114 15.6284 9.27438C16.1202 9.496 16.6667 9.71771 17.2678 9.88392C17.4863 9.93933 17.7596 9.82853 17.8142 9.55151C17.8689 9.32989 17.7049 9.05283 17.4863 8.99742ZM17.4863 6.67034C16.9399 6.55953 16.4481 6.33788 16.0109 6.11626C14.7541 5.56221 13.5519 5.06368 11.5301 5.89476C11.3115 5.95016 11.2022 6.28251 11.3115 6.50413C11.4208 6.72575 11.694 6.83661 11.9126 6.7258C13.5519 6.00554 14.5355 6.50423 15.6284 6.94747C16.1202 7.16909 16.6667 7.44603 17.2678 7.55684C17.4863 7.61225 17.7596 7.50145 17.8142 7.22442C17.8689 7.0028 17.7049 6.78115 17.4863 6.67034ZM0.819681 1.46226C2.02187 1.51767 2.89618 1.1298 3.71585 0.741968C5.3552 0.0217037 6.83061 -0.698527 9.94536 1.29605C13.0601 -0.698527 14.5355 0.0217037 16.1749 0.741968C17.0492 1.1298 17.8689 1.51778 19.1257 1.40697C19.5629 1.35157 19.9454 1.68385 20 2.12709V2.18255V14.5932C20 14.981 19.6721 15.369 19.235 15.369C17.5956 15.4798 16.5574 14.9812 15.5738 14.5379C14.2623 13.9839 13.1147 13.4298 10.4371 15.2582C10.1639 15.4244 9.83608 15.4244 9.56285 15.2582C6.88525 13.4298 5.7377 13.9839 4.42622 14.5379C3.38797 14.9812 2.34971 15.4798 0.710368 15.369C0.327854 15.3136 0 14.981 0 14.5932V2.18255C0 1.79472 0.382511 1.40697 0.765025 1.40697C0.71038 1.40697 0.819681 1.40686 0.819681 1.46226Z" fill="#40A9FF"/>
</svg>
