<svg width="16" height="20" viewBox="0 0 16 20" fill="none" xmlns="http://www.w3.org/2000/svg">
<path fill-rule="evenodd" clip-rule="evenodd" d="M14.4369 14.8512L14.4367 14.8504L14.4363 14.8481C14.4064 14.6979 14.3778 14.5476 14.3492 14.3973L14.3492 14.3972C14.2866 14.0677 14.2239 13.7384 14.1485 13.4121C13.9297 12.4618 13.374 11.8286 12.41 11.568C11.9051 11.4319 11.4029 11.2841 10.9004 11.1362C10.6531 11.0634 10.4056 10.9906 10.1577 10.9191C9.95309 10.869 9.76979 10.7549 9.63438 10.5936C9.51192 10.6983 9.39365 10.8029 9.27748 10.9076C8.92267 11.2216 8.56787 11.5429 8.21516 11.8631C7.96083 12.0934 7.71383 12.0903 7.45845 11.8631C7.15601 11.5883 6.85155 11.315 6.54682 11.0415C6.41286 10.9212 6.27885 10.801 6.14494 10.6805C6.11668 10.6564 6.08633 10.6344 6.04028 10.6041C5.83935 10.8521 5.55482 10.9244 5.27131 10.9965L5.2713 10.9965C5.19594 11.0157 5.12066 11.0348 5.04703 11.0572C4.73926 11.1509 4.4297 11.2385 4.1202 11.3261L4.12013 11.3262C3.76237 11.4274 3.40472 11.5286 3.05008 11.6392C2.42839 11.8317 2.00346 12.2598 1.71459 12.8313C1.5752 13.1051 1.51935 13.4012 1.4636 13.6968C1.44902 13.7741 1.43445 13.8513 1.4184 13.9281C1.33552 14.3228 1.25737 14.718 1.17918 15.1133C1.14084 15.3071 1.1025 15.501 1.06359 15.6948C1.06359 15.7199 1.06359 15.7451 1.05522 15.7869L1.68319 15.9178C1.9418 15.9715 2.2004 16.0251 2.45899 16.0787C3.13182 16.2181 3.80449 16.3575 4.47662 16.4997C4.56251 16.5126 4.64199 16.5527 4.7034 16.6141C4.76481 16.6755 4.80491 16.755 4.81782 16.8409C4.85132 17.0387 4.81782 17.2281 4.63257 17.3359C4.53896 17.3946 4.42858 17.4207 4.31858 17.4102C3.0058 17.1477 1.69984 16.8754 0.392234 16.6027L0.3921 16.6027L0.249319 16.5729C0.0452276 16.53 -0.0301292 16.4149 0.010689 16.2087C0.0815334 15.8325 0.158612 15.4564 0.235757 15.0798L0.235763 15.0798L0.235783 15.0797C0.272599 14.9 0.309431 14.7203 0.345608 14.5404C0.380336 14.3709 0.412068 14.2006 0.443787 14.0304L0.44379 14.0304C0.507662 13.6877 0.571479 13.3452 0.659595 13.0102C0.959975 11.9029 1.64447 11.119 2.74447 10.7558C3.29545 10.5731 3.85486 10.4179 4.41523 10.2623L4.4154 10.2623C4.6448 10.1986 4.87435 10.1349 5.10355 10.0692L5.10887 10.0677C5.23142 10.0329 5.29239 10.0155 5.32494 9.97521C5.35719 9.9353 5.36155 9.87287 5.37025 9.74861L5.37044 9.74583C5.37071 9.65389 5.38124 9.56226 5.40184 9.47266C5.45312 9.30415 5.38823 9.20473 5.26682 9.08646C4.75355 8.57181 4.3685 7.94368 4.14275 7.25278C4.13045 7.21053 4.10427 7.17365 4.06844 7.14811C3.62781 6.91472 3.39337 6.53165 3.30022 6.06067C3.19204 5.60793 3.25856 5.13104 3.48652 4.72518C3.59835 4.56552 3.72146 4.41407 3.85493 4.272C3.85867 4.26744 3.86267 4.26276 3.86675 4.25798L3.86675 4.25797C3.88893 4.23198 3.9137 4.20295 3.91459 4.17466C3.93144 3.66488 4.01988 3.16001 4.17729 2.67485C4.49442 1.67742 5.0575 0.869428 6.0183 0.391122C6.47754 0.171649 6.97535 0.0443507 7.48357 0.0164314C8.10351 -0.0373213 8.72781 0.0411613 9.31516 0.246688C10.0504 0.509827 10.6681 1.02586 11.0578 1.70254C11.3877 2.26668 11.5995 2.89194 11.6805 3.54041C11.697 3.6559 11.706 3.7721 11.715 3.8884V3.88841C11.7215 3.9713 11.7279 4.05423 11.737 4.13698C11.741 4.18019 11.7608 4.22042 11.7925 4.25002C11.9673 4.38441 12.1119 4.55399 12.217 4.74781C12.3221 4.94162 12.3854 5.15534 12.4027 5.37514C12.4711 5.83843 12.366 6.31068 12.1075 6.70121C11.9822 6.8798 11.8179 7.0276 11.6271 7.13346C11.5827 7.15911 11.548 7.1989 11.5288 7.2465C11.3165 7.92435 10.9409 8.53966 10.435 9.03831C10.2498 9.21624 10.2425 9.37951 10.2749 9.58779C10.2875 9.6621 10.2958 9.73641 10.3011 9.81177C10.2992 9.86917 10.3186 9.92525 10.3554 9.96928C10.3923 10.0133 10.4441 10.0422 10.501 10.0504C11.2985 10.2716 12.0936 10.5004 12.8862 10.737C13.6764 10.9735 14.2542 11.4822 14.677 12.1813C14.9397 12.6157 15.0444 13.0992 15.1407 13.588C15.3102 14.4518 15.4822 15.3146 15.6566 16.1763C15.7037 16.4118 15.6388 16.5238 15.4034 16.5729C14.3253 16.799 13.247 17.023 12.1682 17.2449L11.017 17.4846C10.703 17.5515 10.4769 17.4375 10.3984 17.1706C10.3795 17.1138 10.3723 17.0539 10.3773 16.9943C10.3823 16.9347 10.3994 16.8768 10.4275 16.824C10.4556 16.7712 10.4941 16.7247 10.5407 16.6873C10.5874 16.6499 10.6412 16.6224 10.6988 16.6064C10.9227 16.5466 11.1505 16.5008 11.3781 16.4551C11.441 16.4425 11.5037 16.4299 11.5664 16.417L14.5315 15.8037C14.5625 15.7955 14.5929 15.7854 14.6226 15.7733C14.56 15.4604 14.4984 15.1558 14.4369 14.8512ZM7.83314 10.9222L7.84137 10.9164C7.86204 10.9018 7.87678 10.8914 7.89071 10.8793C8.04491 10.7398 8.19935 10.6009 8.35379 10.4621C8.66266 10.1844 8.97152 9.90666 9.27853 9.62337C9.30862 9.58786 9.32398 9.54217 9.32144 9.49569C9.30992 9.34497 9.29213 9.19531 9.26911 9.04669C9.25431 8.97801 9.26081 8.90645 9.28774 8.84156C9.31466 8.77667 9.36074 8.72153 9.41982 8.68351C9.51454 8.61443 9.60409 8.53852 9.68775 8.45639C10.2083 7.94857 10.5744 7.30376 10.7438 6.59654C10.7972 6.39455 10.8485 6.33907 11.0578 6.32338C11.1119 6.32021 11.1645 6.3047 11.2117 6.27803C11.2589 6.25136 11.2993 6.21424 11.3299 6.16952C11.5309 5.8974 11.5235 5.372 11.3153 5.10301C11.219 4.97951 11.1624 4.97009 11.0159 5.02661C10.9113 5.06638 10.8579 5.11871 10.8757 5.23593C10.8835 5.31074 10.8835 5.38616 10.8757 5.46096C10.8693 5.62781 10.7992 5.78587 10.6799 5.90266C10.5606 6.01946 10.401 6.08611 10.2341 6.08893C9.71078 6.09521 9.1791 6.09416 8.65265 6.08893C8.50421 6.08808 8.36075 6.03527 8.24719 5.93968C8.13362 5.84408 8.05712 5.71174 8.03095 5.56562C8.01827 5.50816 8.01037 5.44963 8.00233 5.39003L8.00232 5.39001C7.99909 5.36603 7.99583 5.34189 7.99223 5.31757H7.66987C7.66987 5.36676 7.66987 5.40758 7.66045 5.4484C7.62172 5.82414 7.36635 6.07637 7.00945 6.08579C6.48614 6.09207 5.96283 6.09102 5.43952 6.08579C5.29275 6.0888 5.14957 6.0403 5.03485 5.94871C4.92013 5.85713 4.84112 5.72825 4.81154 5.58446C4.79311 5.45268 4.78366 5.3198 4.78328 5.18674C4.78616 5.15021 4.77776 5.11368 4.75921 5.08208C4.61059 4.92823 4.43267 4.94916 4.32068 5.13441C4.24881 5.25543 4.20369 5.39043 4.18834 5.53034C4.173 5.67025 4.18779 5.81183 4.23172 5.94554C4.29347 6.15487 4.40859 6.31919 4.66711 6.32128C4.81573 6.32128 4.88271 6.43536 4.91516 6.56515C5.14332 7.43384 5.56616 8.16648 6.27995 8.70967C6.32905 8.74431 6.36717 8.7923 6.38981 8.84796C6.41244 8.90361 6.41863 8.96459 6.40764 9.02366C6.39908 9.08768 6.39168 9.15209 6.38427 9.21655L6.38426 9.21658C6.37448 9.30176 6.36468 9.38702 6.35217 9.47161C6.34283 9.50745 6.34464 9.54528 6.35736 9.58006C6.37007 9.61484 6.39309 9.64492 6.42334 9.66629C6.498 9.7242 6.56615 9.78863 6.6343 9.85305C6.66837 9.88526 6.70244 9.91747 6.73733 9.94887L7.83314 10.9222ZM10.7134 3.42947C10.696 3.43281 10.6821 3.43523 10.6705 3.43725C10.6495 3.4409 10.6363 3.44321 10.6234 3.44726C9.77695 3.7077 8.86837 3.68306 8.03723 3.37713C7.71757 3.2605 7.40831 3.11415 7.09888 2.96773L7.09885 2.96771C6.95847 2.90128 6.81806 2.83483 6.67662 2.77114C6.40329 2.63265 6.10177 2.55888 5.79537 2.55554C5.46254 2.566 5.12658 2.76486 5.05541 3.04117C4.99239 3.2867 4.95049 3.53862 4.90869 3.78994L4.90868 3.79001C4.89703 3.86006 4.88539 3.93007 4.87329 3.99987C4.87073 4.01915 4.87292 4.03877 4.87967 4.05701C4.88642 4.07525 4.89752 4.09157 4.91202 4.10454C4.93505 4.1171 4.98842 4.09721 5.01668 4.07628C5.16055 3.96613 5.33794 3.90885 5.51906 3.91405H6.94979C7.08669 3.90627 7.22272 3.94022 7.3399 4.01142C7.45707 4.08263 7.54987 4.18772 7.60602 4.31281C7.61221 4.3266 7.6213 4.33888 7.63269 4.34882C7.64407 4.35876 7.65747 4.36611 7.67196 4.37038C7.78072 4.37666 7.88975 4.37666 7.99851 4.37038C8.01319 4.36625 8.0268 4.35895 8.03837 4.34901C8.04994 4.33906 8.0592 4.32671 8.06549 4.31281C8.1251 4.1847 8.22235 4.0778 8.34427 4.00637C8.46619 3.93494 8.60699 3.90237 8.74789 3.913H9.9515L9.97214 3.913C10.2278 3.91286 10.4803 3.91273 10.6841 4.09721C10.6957 4.10768 10.7815 4.06372 10.7804 4.04907C10.7674 3.86693 10.7451 3.68647 10.7219 3.498C10.7203 3.48529 10.7187 3.47253 10.7172 3.45974C10.7159 3.44968 10.7147 3.43958 10.7134 3.42947ZM10.4099 2.52309C10.4059 2.51195 10.4027 2.50156 10.3997 2.49176L10.3997 2.49174C10.3947 2.47577 10.3902 2.46135 10.3838 2.44773C10.1155 1.84916 9.62384 1.37924 9.01373 1.13841C8.56404 0.975686 8.08506 0.909707 7.60812 0.944785C7.04067 0.954128 6.49088 1.14362 6.03818 1.48589C6.00868 1.50858 5.98136 1.53347 5.94991 1.56212C5.93785 1.57311 5.92518 1.58465 5.91154 1.59683C5.9368 1.60017 5.9611 1.60334 5.98463 1.60642L5.98464 1.60642C6.0791 1.61875 6.16121 1.62948 6.24332 1.64288C6.71346 1.7201 7.1334 1.92693 7.55343 2.13381L7.55344 2.13382C7.58317 2.14846 7.6129 2.16311 7.64266 2.17771C8.1398 2.42052 8.64427 2.64031 9.21259 2.6602C9.6168 2.69148 10.0233 2.64493 10.4099 2.52309ZM5.74199 5.14488H6.70698V4.86543H5.74199V5.14488ZM8.9614 5.14488H9.93057V4.86752H8.9614V5.14488ZM8.09396 12.1261L8.0942 12.1258C8.26484 11.9474 8.42593 11.779 8.58985 11.613C8.65974 11.54 8.75107 11.491 8.85061 11.4734C8.95015 11.4557 9.05273 11.4701 9.14351 11.5146C9.23356 11.5568 9.30678 11.628 9.3514 11.7169C9.39602 11.8057 9.40943 11.907 9.38947 12.0044C9.36895 12.0969 9.32781 12.1834 9.2691 12.2577C9.19815 12.351 9.11509 12.4344 9.0221 12.5058C8.90279 12.5958 8.8986 12.6942 8.92581 12.8302C9.23631 14.3499 9.54262 15.8703 9.84475 17.3914C9.87824 17.5589 9.90336 17.7284 9.9222 17.8969C9.92727 17.9552 9.91876 18.0139 9.89733 18.0684C9.8759 18.1229 9.84214 18.1717 9.7987 18.2109C9.52812 18.4841 9.25807 18.7581 8.98802 19.032L8.98753 19.0326C8.71768 19.3063 8.44784 19.5801 8.17748 19.8531C8.13338 19.8995 8.0803 19.9364 8.02146 19.9617C7.96263 19.987 7.89926 20 7.83523 20C7.7712 20 7.70784 19.987 7.649 19.9617C7.59017 19.9364 7.53709 19.8995 7.49299 19.8531C7.27797 19.6359 7.06346 19.418 6.84892 19.2L6.84866 19.1998L6.84857 19.1997C6.52644 18.8724 6.20424 18.545 5.88014 18.2203C5.81814 18.1569 5.77404 18.0781 5.75235 17.9921C5.73066 17.906 5.73214 17.8158 5.75664 17.7305C5.95739 16.7183 6.1629 15.7021 6.36823 14.6867L6.3683 14.6863C6.41773 14.4419 6.46715 14.1975 6.51649 13.9532C6.59917 13.5409 6.68186 13.1275 6.76035 12.714C6.76295 12.6913 6.76096 12.6683 6.75448 12.6464C6.74801 12.6244 6.73719 12.604 6.72268 12.5864C6.65709 12.5166 6.58592 12.4468 6.51475 12.377C6.47916 12.3421 6.44358 12.3073 6.40869 12.2724C6.36419 12.228 6.32889 12.1753 6.3048 12.1173C6.28072 12.0593 6.26832 11.9971 6.26832 11.9343C6.26832 11.8715 6.28072 11.8093 6.3048 11.7513C6.32889 11.6933 6.36419 11.6406 6.40869 11.5963C6.45298 11.5529 6.50541 11.5188 6.56296 11.4958C6.6205 11.4728 6.68203 11.4614 6.744 11.4622C6.80596 11.4631 6.86714 11.4762 6.92402 11.5009C6.98089 11.5255 7.03233 11.5611 7.07539 11.6057C7.25389 11.7834 7.42605 11.9644 7.60801 12.1556L7.60809 12.1557C7.68217 12.2335 7.75787 12.3131 7.83628 12.3948C7.9254 12.3023 8.01081 12.213 8.09396 12.1261ZM7.57777 13.4561C7.57777 13.4586 7.57562 13.4661 7.5727 13.4763C7.56949 13.4875 7.56535 13.502 7.56207 13.5168C7.45531 14.0443 7.35065 14.5718 7.24808 15.0993C7.07922 15.9366 6.91037 16.7718 6.74151 17.6049C6.73047 17.6424 6.73084 17.6823 6.74259 17.7196C6.75433 17.7569 6.77691 17.7898 6.80745 17.8142C6.90727 17.9078 7.00289 18.0055 7.09837 18.1031L7.09848 18.1032C7.14612 18.1519 7.19373 18.2005 7.2418 18.2486C7.43856 18.4464 7.63533 18.6442 7.83837 18.8462C7.84693 18.8381 7.85513 18.8304 7.86302 18.823C7.89375 18.7942 7.91972 18.7699 7.94304 18.7415C8.0448 18.6398 8.14536 18.538 8.24553 18.4366L8.24614 18.436C8.45482 18.2248 8.66181 18.0153 8.87453 17.8111C8.90499 17.7844 8.92704 17.7494 8.93801 17.7104C8.94897 17.6713 8.94837 17.63 8.93628 17.5913C8.69277 16.3877 8.44855 15.1844 8.20364 13.9815C8.1929 13.9284 8.18199 13.8753 8.17125 13.823L8.17124 13.823C8.14431 13.6918 8.11843 13.5659 8.09898 13.4582L7.57777 13.4561ZM13.7361 14.0705C13.7078 13.8402 13.5278 13.6926 13.2651 13.6926C13.2431 13.6958 13.2211 13.6991 13.1992 13.7025C13.1552 13.7093 13.1112 13.716 13.0673 13.7209C13.021 13.7293 12.9747 13.7378 12.9283 13.7463C12.5044 13.8237 12.079 13.9013 11.6554 13.9815C11.5955 13.9931 11.5352 14.0044 11.4747 14.0158C11.2738 14.0534 11.0706 14.0915 10.8736 14.1437C10.6381 14.2065 10.5334 14.4117 10.5722 14.6775C10.5868 14.7799 10.6389 14.8733 10.7183 14.9396C10.7978 15.0059 10.8989 15.0404 11.0023 15.0365C11.0853 15.0357 11.168 15.0269 11.2493 15.0103C11.3778 14.9862 11.5062 14.9622 11.6346 14.9382C12.2144 14.8297 12.7935 14.7213 13.3719 14.6074C13.645 14.553 13.7706 14.3551 13.7361 14.0705Z" fill="#40A9FF"/>
</svg>
