<svg width="18" height="18" viewBox="0 0 18 18" fill="none" xmlns="http://www.w3.org/2000/svg">
<path fill-rule="evenodd" clip-rule="evenodd" d="M6.73212 9.95536H11.1628V13.8268H6.73212V9.95536ZM11.5566 14.6815C11.8027 14.6815 11.9997 14.4805 11.9997 14.2794V9.55311C11.9997 9.30172 11.8027 9.10062 11.5566 9.10062H6.33828C6.09213 9.10062 5.89523 9.30172 5.89523 9.55311V14.2794C5.89523 14.4805 6.09213 14.6815 6.33828 14.6815H11.5566ZM13.4273 5.07826L11.7535 3.3687V0.854739H13.4273V5.07826ZM17.8087 9.55311L14.215 5.933V0.402244C14.215 0.201126 14.0181 0 13.8211 0H11.3597C11.1135 0 10.9166 0.201126 10.9166 0.402244V2.51396L9.48897 1.00565C9.1936 0.754251 8.75053 0.754251 8.50438 1.00565L0.18461 9.50278C-0.0615367 9.80446 -0.0615367 10.257 0.18461 10.5084C0.479986 10.8101 0.923054 10.8101 1.1692 10.5084L8.99667 2.51396L16.8734 10.5084C17.1195 10.8101 17.5626 10.8101 17.8579 10.5084C18.0549 10.3073 18.0549 9.85479 17.8087 9.55311ZM14.6581 9.65362C14.3134 9.65362 13.9688 9.95537 13.9688 10.3576V16.5922H3.92605V10.3576C3.92605 9.95537 3.58145 9.65362 3.23684 9.65362C2.84301 9.65362 2.54764 9.95537 2.54764 10.3576V17.2961C2.54764 17.648 2.84301 18 3.23684 18H14.6581C15.0027 18 15.3473 17.648 15.3473 17.2961V10.3576C15.3965 9.95537 15.0519 9.65362 14.6581 9.65362Z" fill="#5180C8"/>
</svg>
