<svg width="15" height="20" viewBox="0 0 15 20" fill="none" xmlns="http://www.w3.org/2000/svg">
<path fill-rule="evenodd" clip-rule="evenodd" d="M7.60905 0.0348594C7.55518 0.0233957 7.50128 0.0119259 7.44748 0H6.66232C6.60884 0.0169036 6.55451 0.0309789 6.49955 0.0421674C4.49238 0.337339 3.04267 2.17837 3.23664 4.18722C3.44916 6.38414 5.42007 7.92747 7.62964 7.62049C9.35513 7.38267 10.761 5.87982 10.8782 4.14843C11.0089 2.22728 9.8097 0.57938 7.93746 0.108792C7.82879 0.0816238 7.71898 0.0582543 7.60905 0.0348594ZM4.89666 5.27405C4.61228 4.84672 4.46102 4.34464 4.46202 3.83133C4.4658 3.14415 4.74104 2.48631 5.22775 2.00118C5.71446 1.51605 6.37319 1.24296 7.06038 1.24141C7.57369 1.24208 8.07527 1.39497 8.50168 1.68074C8.92809 1.96651 9.26016 2.37232 9.45591 2.84684C9.65165 3.32137 9.70226 3.84328 9.60134 4.34657C9.50042 4.84987 9.2525 5.31192 8.88895 5.6743C8.52539 6.03667 8.06253 6.28309 7.55891 6.38237C7.0553 6.48165 6.53355 6.42934 6.05966 6.23206C5.58577 6.03478 5.18104 5.70138 4.89666 5.27405ZM6.31405 12.1095L6.08381 13.7304L6.05092 13.7296C6.04568 13.7163 6.04041 13.7031 6.03514 13.6898C6.00989 13.6263 5.98455 13.5625 5.96153 13.4976C5.49094 12.2045 5.01951 10.9114 4.54723 9.61824C4.38447 9.17042 4.10026 9.03295 3.64485 9.17042C3.35924 9.257 3.07334 9.34443 2.78717 9.4327C1.03975 9.97413 0.0142432 11.3344 0.004123 13.162C-0.00206141 14.5197 -3.56231e-08 15.8779 0.00206134 17.2361C0.00309214 17.9153 0.004123 18.5945 0.004123 19.2737C0.00496634 19.7679 0.243634 19.9973 0.741208 19.9973H13.3754C13.8713 19.9973 14.1091 19.7654 14.1091 19.2704C14.1099 18.9616 14.1107 18.6529 14.1116 18.3442C14.1164 16.6154 14.1213 14.8866 14.1091 13.1578C14.099 11.6499 13.4555 10.4751 12.1129 9.75992C11.7406 9.5616 11.3282 9.43661 10.9169 9.31196C10.772 9.26805 10.6272 9.22418 10.4844 9.17717C10.0062 9.02114 9.72539 9.16789 9.55672 9.64016L8.14917 13.5044C8.13264 13.5492 8.11442 13.5933 8.09366 13.6436C8.08159 13.6728 8.06867 13.7041 8.05472 13.7388C8.04493 13.7126 8.03649 13.6858 8.02942 13.6587C8.01914 13.5896 8.00885 13.5204 7.99856 13.4512C7.89408 12.7487 7.78958 12.0462 7.69208 11.3429C7.69062 11.2665 7.71174 11.1914 7.7528 11.127C7.85225 10.951 7.95445 10.775 8.05665 10.5989C8.15033 10.4376 8.244 10.2763 8.33555 10.115C8.62903 9.59378 8.35326 9.11729 7.75195 9.11138C7.2839 9.10632 6.815 9.10464 6.34609 9.11138C5.75828 9.11982 5.48419 9.59631 5.77093 10.1074C5.94213 10.4135 6.11502 10.7196 6.29971 11.0182C6.35056 11.0885 6.38569 11.169 6.40271 11.2541C6.41974 11.3393 6.41826 11.4271 6.39838 11.5116C6.36836 11.6424 6.35318 11.7774 6.33801 11.9123C6.3306 11.9782 6.32319 12.0441 6.31405 12.1095ZM12.8652 18.7492H7.55208L10.5561 10.5198C11.644 10.7129 12.4469 11.3117 12.753 12.3507C12.8316 12.6326 12.8705 12.9241 12.8685 13.2168C12.8767 14.533 12.8755 15.8492 12.8744 17.1657C12.874 17.6266 12.8736 18.0875 12.8736 18.5484C12.8736 18.5788 12.8717 18.6092 12.8696 18.6407C12.8674 18.675 12.8652 18.7106 12.8652 18.7492ZM3.54196 10.4725L6.56199 18.7534L1.25565 18.75C1.25431 18.7318 1.25263 18.7138 1.25097 18.6958C1.24738 18.6573 1.24384 18.6193 1.24384 18.5813C1.24384 17.9803 1.24291 17.3793 1.24197 16.7783C1.2401 15.5762 1.23822 14.3742 1.24384 13.1721C1.2489 12.1736 1.65202 11.3766 2.53669 10.8774C2.74564 10.759 2.97591 10.6774 3.21237 10.5937C3.32141 10.555 3.43177 10.5159 3.54196 10.4725Z" fill="#40A9FF"/>
</svg>
