<svg width="26" height="31" viewBox="0 0 26 31" fill="none" xmlns="http://www.w3.org/2000/svg">
    <defs>
        <linearGradient id="paint0_linear_587_28552" x1="12.5312" y1="0" x2="12.5313" y2="31" gradientUnits="userSpaceOnUse">
            <stop stop-color="#1990FF"/>
            <stop offset="1" stop-color="#1474CD"/>
        </linearGradient>
        <linearGradient id="paint1_linear_587_28552" x1="12.5312" y1="8" x2="12.5312" y2="24" gradientUnits="userSpaceOnUse">
            <stop stop-color="#1990FF"/>
            <stop offset="1" stop-color="#1474CD"/>
        </linearGradient>
        <linearGradient id="paint2_linear_587_28552" x1="12.5312" y1="13" x2="12.5312" y2="19" gradientUnits="userSpaceOnUse">
            <stop stop-color="#1990FF"/>
            <stop offset="1" stop-color="#1474CD"/>
        </linearGradient>
    </defs>
    <path d="M12.6819 31C9.5192 31 6.50715 30.2172 3.64571 28.6515C1.38667 27.399 0.03125 25.0505 0.03125 22.3889V8.45455C0.03125 5.32323 1.83848 2.66162 4.54932 1.56566C7.10956 0.626263 9.6698 0.156566 12.3806 0H12.6819C15.3927 0 17.9529 0.469697 20.5132 1.56566C23.224 2.66162 25.0312 5.32323 25.0312 8.45455V22.3889C25.0312 25.0505 23.6758 27.399 21.4168 28.6515C18.7059 30.2172 15.6939 31 12.6819 31ZM12.6819 2.34848H12.3806C9.97101 2.34848 7.56137 2.81818 5.30233 3.75758C3.3445 4.54041 2.13968 6.41919 2.13968 8.61111V22.5455C2.13968 24.4242 3.0433 25.9899 4.54932 26.7727C7.10956 28.1818 9.8204 28.8081 12.5312 28.8081C15.3927 28.8081 18.1035 28.0253 20.5132 26.7727C22.0192 25.9899 22.9228 24.2677 22.9228 22.5455V8.61111C22.9228 6.41919 21.5674 4.54041 19.7602 3.75758C17.6517 2.81818 15.2421 2.34848 12.6819 2.34848Z" fill="url(#paint0_linear_587_28552)"/>
    <path d="M12.5313 24C11.3494 24 10.0199 23.6923 8.9858 22.9231C7.21307 21.6923 6.03125 19.5385 6.03125 17.3846V8H19.0313V17.5385C19.0313 20.1538 17.554 22.4615 15.3381 23.5385C14.4517 23.8462 13.5653 24 12.5313 24ZM8.09943 10.1538V17.3846C8.09943 18.9231 8.83807 20.3077 10.1676 21.0769C11.4972 22 13.1222 22 14.5994 21.3846C16.0767 20.7692 16.9631 19.2308 16.9631 17.3846V10L8.09943 10.1538Z" fill="url(#paint1_linear_587_28552)"/>
    <path d="M12.5313 19C12.0767 19 11.5653 18.8846 11.1676 18.5962C10.4858 18.1346 10.0312 17.3269 10.0312 16.5192V13H15.0313V16.5769C15.0313 17.5577 14.4631 18.4231 13.6108 18.8269C13.2699 18.9423 12.929 19 12.5313 19ZM10.8267 13.8077V16.5192C10.8267 17.0962 11.1108 17.6154 11.6222 17.9038C12.1335 18.25 12.7585 18.25 13.3267 18.0192C13.8949 17.7885 14.2358 17.2115 14.2358 16.5192V13.75L10.8267 13.8077Z" fill="url(#paint2_linear_587_28552)"/>
</svg>
