<svg width="16" height="20" viewBox="0 0 16 20" fill="none" xmlns="http://www.w3.org/2000/svg">
    <defs>
        <linearGradient id="paint0_linear_3801_32492" x1="7.99925" y1="0" x2="7.99925" y2="20"
            gradientUnits="userSpaceOnUse">
            <stop stop-color="#1990FF" />
            <stop offset="1" stop-color="#1474CD" />
        </linearGradient>
    </defs>
    <path fill-rule="evenodd" clip-rule="evenodd"
        d="M7.99924 12.5492C11.4196 12.5492 15.9672 12.9343 15.9672 16.2666C15.9672 19.7767 10.6683 19.9874 8.39534 20L7.5701 20C5.14657 19.9874 0.03125 19.778 0.03125 16.2876C0.03125 12.7735 5.33019 12.5626 7.60315 12.55L7.87623 12.5492C7.91879 12.5492 7.95982 12.5492 7.99924 12.5492ZM7.99924 14.1235C5.08261 14.1235 1.60554 14.4981 1.60554 16.2876C1.60554 17.7065 3.75706 18.4265 7.99924 18.4265C12.2414 18.4265 14.393 17.6992 14.393 16.2666C14.393 14.8445 12.2414 14.1235 7.99924 14.1235ZM7.99924 0C10.9705 0 13.3886 2.41811 13.3886 5.38931C13.3949 6.82086 12.8397 8.17265 11.8279 9.19069C10.8183 10.2098 9.46963 10.7734 8.03493 10.7786H7.99924C5.02699 10.7786 2.60888 8.36052 2.60888 5.38931C2.60888 2.41811 5.02699 0 7.99924 0ZM7.99924 1.57429C5.89495 1.57429 4.18317 3.28606 4.18317 5.38931C4.18317 7.49256 5.89495 9.20434 7.99924 9.20434H8.03178C9.04352 9.20014 9.99649 8.80237 10.7112 8.08134C11.427 7.36242 11.8185 6.4063 11.8143 5.39246C11.8143 3.28606 10.1025 1.57429 7.99924 1.57429Z"
        fill="url(#paint0_linear_3801_32492)" />
</svg>
