<svg width="18" height="19" viewBox="0 0 18 19" fill="none" xmlns="http://www.w3.org/2000/svg">
<path d="M4.44772 12.2915L4.44772 10.5595L12.3766 10.5595C12.4798 10.5595 12.5641 10.4751 12.5641 10.372L12.5641 8.96572C12.5641 8.8626 12.4798 8.77822 12.3766 8.77822L4.44772 8.77822L4.44772 7.0415C4.44772 6.88447 4.26725 6.79775 4.14538 6.89385L0.821941 9.51885C0.79953 9.53639 0.781406 9.5588 0.768942 9.58438C0.756477 9.60996 0.75 9.63805 0.75 9.6665C0.75 9.69496 0.756477 9.72305 0.768942 9.74863C0.781406 9.77421 0.79953 9.79662 0.821941 9.81416L4.14304 12.4392C4.26725 12.5353 4.44772 12.4485 4.44772 12.2915ZM11.6735 1.08838L11.6735 2.49463C11.6735 2.59775 11.7579 2.68213 11.861 2.68213L15.4704 2.68213L15.4704 16.6509L11.861 16.6509C11.7579 16.6509 11.6735 16.7353 11.6735 16.8384L11.6735 18.2446C11.6735 18.3478 11.7579 18.4321 11.861 18.4321L16.5016 18.4321C16.9165 18.4321 17.2516 18.097 17.2516 17.6821L17.2516 1.65088C17.2516 1.23603 16.9165 0.900878 16.5016 0.900878L11.861 0.900878C11.7579 0.900878 11.6735 0.985254 11.6735 1.08838Z" fill="#BFBFBF"/>
</svg>
