<svg width="24"
    height="25"
    viewBox="0 0 24 25"
    fill="none"
    xmlns="http://www.w3.org/2000/svg">
    <g clip-path="url(#clip0_3782_14831)">
        <path
            d="M23.0673 11.0683L12.6383 0.639369C12.3939 0.39494 12.0624 0.257812 11.7166 0.257812C11.3709 0.257812 11.0393 0.39494 10.7949 0.639369L0.365931 11.0683C0.046208 11.3995 -0.0752806 11.8747 0.0463893 12.3187C0.168059 12.7626 0.515042 13.1096 0.959019 13.2313C1.40296 13.353 1.87817 13.2315 2.20933 12.9118L2.59125 12.5298V20.1481V20.1479C2.59234 21.0956 2.96917 22.0042 3.63937 22.6744C4.30956 23.3446 5.21815 23.7214 6.16588 23.7226H17.2676H17.2674C18.2151 23.7215 19.1238 23.3446 19.794 22.6744C20.4642 22.0042 20.841 21.0957 20.8421 20.1479V12.5296L21.224 12.9116C21.5552 13.2313 22.0304 13.3528 22.4743 13.2311C22.9182 13.1094 23.2652 12.7625 23.3869 12.3185C23.5086 11.8745 23.3871 11.3993 23.0674 11.0682L23.0673 11.0683ZM18.2346 20.1481C18.2342 20.4045 18.1322 20.6504 17.9509 20.8317C17.7696 21.0131 17.5237 21.1151 17.2672 21.1155H6.16548C5.90905 21.1151 5.66317 21.0131 5.48182 20.8317C5.30048 20.6504 5.19847 20.4045 5.19811 20.1481V9.92256L11.7162 3.40445L18.2343 9.92256L18.2346 20.1481Z"
            fill="#262626"
            stroke="white"
            stroke-width="0.1"
            stroke-linejoin="round" />
    </g>
    <defs>
        <clipPath id="clip0_3782_14831">
            <rect
                width="24"
                height="24"
                fill="white"
                transform="translate(0 0.257812)" />
        </clipPath>
    </defs>
</svg>
