<svg width="25" height="25" viewBox="0 0 25 25" fill="none" xmlns="http://www.w3.org/2000/svg">
<path fill-rule="evenodd" clip-rule="evenodd" d="M12.6371 0.00683594C7.68099 0.00683594 4.32244 3.87005 4.32244 7.52273C4.32244 9.06336 3.98083 9.8035 3.58068 10.4914L3.58011 10.4924L3.41151 10.7761C2.9208 11.5918 2.34821 12.5484 2.35158 14.4038C2.35159 14.4108 2.3519 14.4179 2.35251 14.4249C2.45012 15.5518 2.82471 16.4368 3.42591 17.1231C4.02472 17.8066 4.83387 18.2767 5.77527 18.6011C7.64834 19.2466 10.1046 19.3341 12.6371 19.3341C15.1695 19.3341 17.626 19.2466 19.4999 18.5921C20.4419 18.263 21.2513 17.786 21.8503 17.0924C22.4515 16.3963 22.8263 15.4987 22.9249 14.3554C22.9255 14.3482 22.9259 14.3411 22.9259 14.3339C22.9259 12.5466 22.352 11.5896 21.8625 10.7758C21.6182 10.3688 21.395 9.99558 21.229 9.50572C21.0636 9.01771 20.9517 8.40304 20.9517 7.52273C20.9517 3.87005 17.5932 0.00683594 12.6371 0.00683594ZM6.45035 7.52273C6.45035 5.00667 8.96943 2.13474 12.6371 2.13474C16.3048 2.13474 18.8238 5.00667 18.8238 7.52273C18.8238 8.6751 18.9839 9.52769 19.2197 10.2146C19.4543 10.8985 19.7612 11.4087 20.0374 11.8679L20.0392 11.871C20.2629 12.2434 20.449 12.5547 20.5831 12.9174C20.7146 13.2729 20.7985 13.6859 20.8012 14.2528C20.7576 14.7403 20.6444 15.1499 20.4141 15.4972C20.1832 15.8454 19.8203 16.1522 19.2411 16.4071C18.0675 16.9235 16.0561 17.2062 12.6371 17.2062C9.19814 17.2062 7.18742 16.9354 6.01898 16.4329C5.44261 16.1851 5.08453 15.8862 4.8575 15.5464C4.63097 15.2073 4.52009 14.8053 4.47625 14.3228C4.47726 13.7191 4.56097 13.2882 4.69218 12.9243C4.82574 12.5538 5.01138 12.2433 5.23498 11.871L5.23682 11.8679C5.51303 11.4087 5.81985 10.8985 6.05453 10.2146C6.29026 9.52769 6.45035 8.6751 6.45035 7.52273Z" fill="black"/>
<path d="M9.23386 20.7454C9.67081 20.3513 10.3434 20.3868 10.7364 20.825C11.2575 21.4056 11.9143 21.7123 12.583 21.7123H12.5841C13.2566 21.7123 13.9165 21.4052 14.4384 20.8239L14.4391 20.8231C14.8328 20.3884 15.5048 20.3521 15.9409 20.7454C16.3777 21.1382 16.4136 21.812 16.0201 22.248C15.0998 23.2696 13.8805 23.8402 12.5841 23.8402H12.5817C11.2885 23.839 10.0713 23.2683 9.1542 22.2464C8.76151 21.8107 8.79692 21.1372 9.23386 20.7454Z" fill="black"/>
</svg>
