<svg width="25" height="25" viewBox="0 0 25 25" fill="none" xmlns="http://www.w3.org/2000/svg">
<g clip-path="url(#clip0_3782_16129)">
<path d="M10.8262 0.256836H1.20117C0.648047 0.256836 0.201172 0.703711 0.201172 1.25684V10.8818C0.201172 11.0193 0.313672 11.1318 0.451172 11.1318H10.8262C10.9637 11.1318 11.0762 11.0193 11.0762 10.8818V0.506836C11.0762 0.369336 10.9637 0.256836 10.8262 0.256836ZM9.07617 9.13184H2.20117V2.25684H9.07617V9.13184ZM4.76367 6.81934H6.51367C6.65117 6.81934 6.76367 6.70684 6.76367 6.56934V4.81934C6.76367 4.68184 6.65117 4.56934 6.51367 4.56934H4.76367C4.62617 4.56934 4.51367 4.68184 4.51367 4.81934V6.56934C4.51367 6.70684 4.62617 6.81934 4.76367 6.81934ZM10.8262 13.3818H0.451172C0.313672 13.3818 0.201172 13.4943 0.201172 13.6318V23.2568C0.201172 23.81 0.648047 24.2568 1.20117 24.2568H10.8262C10.9637 24.2568 11.0762 24.1443 11.0762 24.0068V13.6318C11.0762 13.4943 10.9637 13.3818 10.8262 13.3818ZM9.07617 22.2568H2.20117V15.3818H9.07617V22.2568ZM4.76367 19.9443H6.51367C6.65117 19.9443 6.76367 19.8318 6.76367 19.6943V17.9443C6.76367 17.8068 6.65117 17.6943 6.51367 17.6943H4.76367C4.62617 17.6943 4.51367 17.8068 4.51367 17.9443V19.6943C4.51367 19.8318 4.62617 19.9443 4.76367 19.9443ZM23.2012 0.256836H13.5762C13.4387 0.256836 13.3262 0.369336 13.3262 0.506836V10.8818C13.3262 11.0193 13.4387 11.1318 13.5762 11.1318H23.9512C24.0887 11.1318 24.2012 11.0193 24.2012 10.8818V1.25684C24.2012 0.703711 23.7543 0.256836 23.2012 0.256836ZM22.2012 9.13184H15.3262V2.25684H22.2012V9.13184ZM17.8887 6.81934H19.6387C19.7762 6.81934 19.8887 6.70684 19.8887 6.56934V4.81934C19.8887 4.68184 19.7762 4.56934 19.6387 4.56934H17.8887C17.7512 4.56934 17.6387 4.68184 17.6387 4.81934V6.56934C17.6387 6.70684 17.7512 6.81934 17.8887 6.81934ZM23.9512 13.3818H22.4512C22.3137 13.3818 22.2012 13.4943 22.2012 13.6318V17.8193H19.7637V13.6318C19.7637 13.4943 19.6512 13.3818 19.5137 13.3818H13.5762C13.4387 13.3818 13.3262 13.4943 13.3262 13.6318V24.0068C13.3262 24.1443 13.4387 24.2568 13.5762 24.2568H15.0762C15.2137 24.2568 15.3262 24.1443 15.3262 24.0068V16.3818H17.7637V19.5693C17.7637 19.7068 17.8762 19.8193 18.0137 19.8193H23.9512C24.0887 19.8193 24.2012 19.7068 24.2012 19.5693V13.6318C24.2012 13.4943 24.0887 13.3818 23.9512 13.3818ZM19.5137 22.2568H18.0137C17.8762 22.2568 17.7637 22.3693 17.7637 22.5068V24.0068C17.7637 24.1443 17.8762 24.2568 18.0137 24.2568H19.5137C19.6512 24.2568 19.7637 24.1443 19.7637 24.0068V22.5068C19.7637 22.3693 19.6512 22.2568 19.5137 22.2568ZM23.9512 22.2568H22.4512C22.3137 22.2568 22.2012 22.3693 22.2012 22.5068V24.0068C22.2012 24.1443 22.3137 24.2568 22.4512 24.2568H23.9512C24.0887 24.2568 24.2012 24.1443 24.2012 24.0068V22.5068C24.2012 22.3693 24.0887 22.2568 23.9512 22.2568Z" fill="black"/>
</g>
<defs>
<clipPath id="clip0_3782_16129">
<rect width="24" height="24" fill="white" transform="translate(0.201172 0.256836)"/>
</clipPath>
</defs>
</svg>
