<svg width="25" height="25" viewBox="0 0 25 25" fill="none" xmlns="http://www.w3.org/2000/svg">
<g clip-path="url(#clip0_3782_16114)">
<path fill-rule="evenodd" clip-rule="evenodd" d="M11.5839 0.907227C5.77577 0.907227 1.05078 5.63107 1.05078 11.4393C1.05078 17.2475 5.77572 21.9724 11.5839 21.9724C13.9555 21.9724 16.1469 21.1843 17.909 19.8567L22.0043 23.9432C22.2259 24.1634 22.5164 24.2739 22.8051 24.2739C23.0938 24.2739 23.3867 24.164 23.6086 23.9395C24.0514 23.4957 24.0487 22.779 23.6066 22.3368L19.5667 18.3034C21.1545 16.459 22.116 14.0591 22.116 11.4393C22.116 5.63112 17.3921 0.907227 11.5839 0.907227ZM3.31919 11.4393C3.31919 6.88249 7.02698 3.17563 11.5839 3.17563C16.1398 3.17563 19.8476 6.88246 19.8476 11.4393C19.8476 15.9962 16.1397 19.704 11.5839 19.704C7.02703 19.704 3.31919 15.9962 3.31919 11.4393Z" fill="black"/>
</g>
<defs>
<clipPath id="clip0_3782_16114">
<rect width="24" height="24" fill="white" transform="translate(0.400391 0.256836)"/>
</clipPath>
</defs>
</svg>
