<svg width="35"
    height="33"
    viewBox="0 0 35 33"
    fill="none"
    xmlns="http://www.w3.org/2000/svg">
    <g clip-path="url(#clip0_3782_16108)">
<!--        <path-->
<!--            d="M1.53086 5.58816C1.53086 3.05868 3.71695 0.967383 6.46544 0.967383H29.1374C31.8859 0.967383 34.072 3.05868 34.072 5.58816V26.9265C34.072 29.456 31.8859 31.5473 29.1374 31.5473H6.46544C3.71695 31.5473 1.53086 29.456 1.53086 26.9265V5.58816Z"-->
<!--            stroke="black"-->
<!--            stroke-width="0.8" />-->
        <path
            fill-rule="evenodd"
            clip-rule="evenodd"
            d="M11.0701 15.7578C10.6175 15.5733 10.1409 15.4793 9.65432 15.4793C8.63963 15.4793 7.56438 14.5343 7.56385 13.6423C7.56385 12.6368 8.44785 11.8193 9.53532 11.8193C10.6223 11.8193 11.6221 12.6248 11.6221 13.6298H13.312C13.312 13.1728 13.2153 12.7293 13.0235 12.3123C12.6469 11.4968 11.9484 10.8508 11.0754 10.5108C10.6249 10.3338 10.0294 10.2568 9.53585 10.2568C9.04232 10.2568 8.56207 10.3458 8.1121 10.5238C7.6784 10.6922 7.28335 10.9379 6.94866 11.2473C6.6153 11.555 6.34879 11.9208 6.164 12.3243C5.97222 12.7423 5.87554 13.1858 5.87554 13.6428C5.87554 14.4843 6.30266 15.3478 7.04482 16.0108C7.77954 16.6663 8.731 17.0423 9.65485 17.0423C10.6844 17.0423 11.6231 17.9143 11.6231 18.8713C11.6231 19.8758 10.7391 20.6943 9.65166 20.6943C8.56472 20.6943 7.56491 19.8653 7.56491 18.8603H5.87501C5.87418 19.3135 5.97237 19.7619 6.16347 20.1778C6.34815 20.5811 6.61469 20.9466 6.94813 21.2538C7.28296 21.5634 7.67796 21.8093 8.11157 21.9783C8.56207 22.1563 9.15707 22.2568 9.65113 22.2568C10.6187 22.2582 11.5481 21.9019 12.2394 21.2648C12.5729 20.9581 12.8395 20.5929 13.024 20.1898C13.2158 19.7718 13.3125 19.3283 13.3125 18.8713C13.3125 18.4253 13.2121 17.9858 13.0139 17.5648C12.8254 17.1643 12.5579 16.801 12.2256 16.4943C11.8925 16.1833 11.5006 15.9335 11.0701 15.7578ZM21.5198 20.1858C21.7137 19.7678 21.8125 19.3233 21.8125 18.8653L21.813 13.6483C21.813 13.1913 21.7142 12.7468 21.5203 12.3278C21.3323 11.9238 21.0645 11.5613 20.7234 11.2498C20.3824 10.9383 19.9845 10.6943 19.5409 10.5233C19.0824 10.3468 18.5958 10.2568 18.0938 10.2568C17.5917 10.2568 17.1046 10.3468 16.6456 10.5233C16.206 10.6922 15.8049 10.9388 15.4641 11.2498C15.1256 11.5563 14.8548 11.9226 14.6672 12.3278C14.4733 12.7468 14.3745 13.1913 14.3745 13.6483V18.8653C14.3738 19.3198 14.4735 19.7695 14.6672 20.1858C14.8549 20.591 15.1257 20.9573 15.4641 21.2638C15.8052 21.5745 16.2062 21.8211 16.6456 21.9903C17.1051 22.1668 17.5923 22.2568 18.0938 22.2568C18.5953 22.2568 19.0824 22.1668 19.5404 21.9903C19.9802 21.8214 20.3816 21.5748 20.7229 21.2638C21.0607 20.9569 21.3314 20.5907 21.5198 20.1858ZM28.0712 15.7578C27.6169 15.5728 27.1404 15.4783 26.6554 15.4783C25.6386 15.4783 24.5649 14.5343 24.5644 13.6423C24.5644 12.6368 25.4484 11.8193 26.5359 11.8193C27.6228 11.8193 28.6221 12.6248 28.6221 13.6298H30.312C30.312 13.1728 30.2148 12.7293 30.0235 12.3123C29.8394 11.909 29.5732 11.5434 29.2399 11.2363C28.9042 10.9258 28.5121 10.6818 28.0765 10.5108C27.6244 10.3338 27.0299 10.2568 26.5364 10.2568C26.0429 10.2568 25.5626 10.3458 25.111 10.5228C24.6778 10.6923 24.2832 10.9386 23.9487 11.2483C23.6091 11.5599 23.3392 11.9323 23.1549 12.3435C22.9706 12.7547 22.8756 13.1965 22.8755 13.6428C22.8755 14.4843 23.3016 15.3478 24.0448 16.0108C24.7801 16.6663 25.7315 17.0423 26.6559 17.0423C27.6855 17.0423 28.6231 17.9143 28.6231 18.8713C28.6231 19.8758 27.7386 20.6943 26.6511 20.6943C25.5642 20.6943 24.5654 19.8653 24.5654 18.8593H22.875C22.8743 19.3128 22.9725 19.7615 23.1635 20.1778C23.3478 20.5813 23.6144 20.9469 23.9481 21.2538C24.2829 21.563 24.6774 21.8089 25.1105 21.9783C25.5626 22.1553 26.1565 22.2568 26.6506 22.2568C27.1447 22.2568 27.6244 22.1668 28.077 21.9903C28.5107 21.8215 28.9057 21.5755 29.2404 21.2658C29.5736 20.9586 29.8398 20.5931 30.024 20.1898C30.2153 19.7718 30.3125 19.3283 30.3125 18.8713C30.3125 18.4253 30.2121 17.9858 30.0155 17.5648C29.6288 16.7558 28.9355 16.1116 28.0712 15.7578ZM16.0905 13.6483C16.0905 12.6418 16.9894 11.8223 18.0934 11.8223C19.1973 11.8223 20.0956 12.6418 20.0962 13.6483V18.8653C20.0962 19.8728 19.1978 20.6913 18.0934 20.6913C16.9889 20.6913 16.0905 19.8733 16.0905 18.8653V13.6483Z"
            fill="black"
            stroke="black"
            stroke-width="0.4" />
    </g>
    <defs>
        <clipPath id="clip0_3782_16108">
            <rect
                width="34"
                height="32"
                fill="white"
                transform="translate(0.800781 0.256836)" />
        </clipPath>
    </defs>
</svg>
