<svg width="26" height="16" viewBox="0 0 26 16" fill="none" xmlns="http://www.w3.org/2000/svg">
<path d="M17.2996 0.160156H18.9379C19.0949 0.160156 19.1816 0.340625 19.0855 0.460156L7.63866 14.9656C7.33632 15.3453 6.75975 15.3453 6.45975 14.9656L0.0402228 6.83281C-0.0558709 6.71094 0.0308479 6.53047 0.187879 6.53047H1.82616C1.93945 6.53061 2.05123 6.55641 2.15311 6.60593C2.255 6.65545 2.34435 6.72741 2.41444 6.81641L7.04804 12.6875L16.7113 0.446094C16.8519 0.265625 17.0699 0.160156 17.2996 0.160156Z" fill="white"/>
<path d="M25.3871 0.160156H23.7488C23.5191 0.160156 23.3012 0.265625 23.1605 0.446094L13.4973 12.6875L12.3389 11.2197C12.0072 11.5974 11.6683 11.9785 11.6683 11.9785L11.0781 12.6875L12.909 14.9656C13.209 15.3453 13.7855 15.3453 14.0879 14.9656L25.5348 0.460156C25.6309 0.340625 25.5441 0.160156 25.3871 0.160156Z" fill="white"/>
</svg>
