<svg width="29" height="28" viewBox="0 0 29 28" fill="none" xmlns="http://www.w3.org/2000/svg">
<path fill-rule="evenodd" clip-rule="evenodd" d="M0.850053 5.71054C1.26531 4.84024 2.27054 0.640299 2.27054 0.640299C2.27054 0.640299 6.10257 2.39973 7.84915 3.2331C10.466 4.48172 19.5324 8.80765 19.5324 8.80765C21.3164 9.65889 28.6629 13.4162 28.6629 13.4162C28.6629 13.4162 21.5035 17.2283 19.7637 18.1667L8.08049 24.4679C6.88759 25.1113 2.27054 27.8789 2.27054 27.8789C2.27054 27.8789 1.70055 23.6984 0.967541 22.3393C-0.408847 19.7873 0.544164 16.6027 3.09615 15.2263L5.68067 13.8324L3.32749 12.7096C0.71062 11.461 -0.398567 8.32741 0.850053 5.71054Z" fill="#2583DA"/>
</svg>
