<svg width="37" height="38" viewBox="0 0 37 38" fill="none" xmlns="http://www.w3.org/2000/svg">
<path d="M23.9743 7.57666L23.9752 7.57666C24.005 7.57663 24.034 7.58579 24.0583 7.60289C24.0825 7.61984 24.1009 7.64377 24.111 7.67145C24.1111 7.67169 24.1112 7.67192 24.1113 7.67216L24.7927 9.5818C25.2189 10.7762 26.35 11.5736 27.6182 11.5736H31.0617C32.0868 11.5736 32.9166 12.4034 32.9166 13.4285V29.7017C32.9166 30.7267 32.0868 31.5566 31.0617 31.5566H5.93825C4.91318 31.5566 4.08331 30.7267 4.08331 29.7017V13.4285C4.08331 12.4034 4.91318 11.5736 5.93825 11.5736H9.38325C10.6503 11.5736 11.7808 10.7775 12.2078 9.58455L12.893 7.67021L12.894 7.6672C12.9122 7.61606 12.9643 7.57666 13.0256 7.57666L23.9743 7.57666ZM11.7901 21.1368C11.7901 24.8438 14.793 27.8467 18.5 27.8467C22.207 27.8467 25.2099 24.8438 25.2099 21.1368C25.2099 17.4299 22.207 14.427 18.5 14.427C14.793 14.427 11.7901 17.4299 11.7901 21.1368ZM16.7846 22.8522C16.3296 22.3973 16.0741 21.7802 16.0741 21.1368C16.0741 20.4934 16.3296 19.8764 16.7846 19.4215C17.2395 18.9665 17.8566 18.7109 18.5 18.7109C19.1434 18.7109 19.7604 18.9665 20.2154 19.4215C20.6703 19.8764 20.9259 20.4935 20.9259 21.1368C20.9259 21.7802 20.6703 22.3973 20.2154 22.8522C19.7604 23.3072 19.1434 23.5628 18.5 23.5628C17.8566 23.5628 17.2395 23.3072 16.7846 22.8522Z" stroke="black" stroke-width="2"/>
</svg>
