<svg width="91" height="107" viewBox="0 0 91 107" fill="none" xmlns="http://www.w3.org/2000/svg">
<path d="M44.564 90.9499C36.0993 90.9499 28.0376 88.8558 20.3791 84.6677C14.3328 81.3172 10.7051 75.035 10.7051 67.9152V30.6408C10.7051 22.2646 15.5421 15.1447 22.7976 12.213C29.65 9.70016 36.5024 8.44372 43.7579 8.0249H44.564C51.8195 8.0249 58.6719 9.28134 65.5244 12.213C72.7798 15.1447 77.6168 22.2646 77.6168 30.6408V67.9152C77.6168 75.035 73.9891 81.3172 67.9428 84.6677C60.6874 88.8558 52.6257 90.9499 44.564 90.9499ZM44.564 14.3071H43.7579C37.3085 14.3071 30.8592 15.5635 24.813 18.0764C19.5729 20.1705 16.3482 25.1962 16.3482 31.0596V68.334C16.3482 73.3598 18.7667 77.5479 22.7976 79.642C29.65 83.4113 36.9055 85.0865 44.161 85.0865C51.8195 85.0865 59.075 82.9925 65.5244 79.642C69.5552 77.5479 71.9737 72.9409 71.9737 68.334V31.0596C71.9737 25.1962 68.3459 20.1705 63.5089 18.0764C57.8658 15.5635 51.4165 14.3071 44.564 14.3071Z" fill="white"/>
<path d="M44.1627 72.2248C40.9996 72.2248 37.4411 71.4017 34.6734 69.344C29.9287 66.0517 26.7656 60.2902 26.7656 54.5286V29.4248H61.5597V54.9402C61.5597 61.9363 57.6059 68.1094 51.675 70.9902C49.3027 71.8133 46.9304 72.2248 44.1627 72.2248ZM32.3011 35.1863V54.5286C32.3011 58.644 34.278 62.3479 37.8365 64.4056C41.395 66.8748 45.7442 66.8748 49.6981 65.2286C53.652 63.5825 56.0243 59.4671 56.0243 54.5286V34.7748L32.3011 35.1863Z" fill="white"/>
<path d="M44.1619 58.8498C42.9453 58.8498 41.5767 58.5412 40.5121 57.7695C38.6873 56.5349 37.4707 54.3743 37.4707 52.2137V42.7998H50.8531V52.3681C50.8531 54.9916 49.3323 57.3065 47.0512 58.3868C46.1388 58.6955 45.2264 58.8498 44.1619 58.8498ZM39.5997 44.9604V52.2137C39.5997 53.757 40.3601 55.146 41.7287 55.9176C43.0974 56.8436 44.7702 56.8436 46.2909 56.2262C47.8116 55.6089 48.724 54.0657 48.724 52.2137V44.8061L39.5997 44.9604Z" fill="white"/>
</svg>
