<svg width="37" height="37" viewBox="0 0 37 37" fill="none" xmlns="http://www.w3.org/2000/svg">
<path d="M18.6066 16.9322L23.7932 11.7457L23.8078 11.7331C24.031 11.542 24.3181 11.4421 24.6117 11.4534C24.9053 11.4648 25.1839 11.5865 25.3916 11.7943C25.5994 12.0021 25.7211 12.2806 25.7325 12.5742C25.7438 12.8678 25.644 13.1549 25.4528 13.3781L25.4403 13.3928L20.2535 18.5795L25.4403 23.7663L25.4528 23.781C25.644 24.0042 25.7438 24.2913 25.7325 24.5849C25.7211 24.8785 25.5994 25.157 25.3916 25.3648C25.1839 25.5726 24.9053 25.6943 24.6117 25.7057C24.3181 25.717 24.031 25.6171 23.8078 25.426L23.7932 25.4134L18.6062 20.2264L13.4383 25.3881C13.3364 25.5026 13.2129 25.596 13.0748 25.6628C12.93 25.7328 12.7724 25.7722 12.6117 25.7784C12.4511 25.7846 12.2908 25.7575 12.1411 25.6989C11.9914 25.6402 11.8554 25.5512 11.7417 25.4375C11.628 25.3238 11.5391 25.1879 11.4804 25.0382C11.4218 24.8884 11.3947 24.7282 11.4009 24.5675C11.4071 24.4069 11.4465 24.2492 11.5165 24.1045C11.5833 23.9663 11.6768 23.8427 11.7914 23.7408L16.9589 18.5795L11.7797 13.4067C11.5604 13.1873 11.437 12.8897 11.437 12.5796C11.437 12.2694 11.5602 11.972 11.7795 11.7527C11.9988 11.5334 12.2962 11.4102 12.6064 11.4102C12.9165 11.4102 13.214 11.5334 13.4333 11.7527L18.6066 16.9322Z" fill="#595959"/>
<path fill-rule="evenodd" clip-rule="evenodd" d="M36.4 18.4102C36.4 28.3513 28.3412 36.4102 18.4 36.4102C8.4589 36.4102 0.400024 28.3513 0.400024 18.4102C0.400024 8.46903 8.4589 0.410156 18.4 0.410156C28.3412 0.410156 36.4 8.46903 36.4 18.4102ZM34.4 18.4102C34.4 27.2467 27.2366 34.4102 18.4 34.4102C9.56347 34.4102 2.40002 27.2467 2.40002 18.4102C2.40002 9.5736 9.56347 2.41016 18.4 2.41016C27.2366 2.41016 34.4 9.5736 34.4 18.4102Z" fill="#595959"/>
</svg>
