<svg width="18" height="19" viewBox="0 0 18 19" fill="none" xmlns="http://www.w3.org/2000/svg">
    <defs>
        <filter id="filter0_ii_3801_25626" x="0.828125" y="-0.21875" width="17.0039"
            height="19.7236" filterUnits="userSpaceOnUse" color-interpolation-filters="sRGB">
            <feFlood flood-opacity="0" result="BackgroundImageFix" />
            <feBlend mode="normal" in="SourceGraphic" in2="BackgroundImageFix" result="shape" />
            <feColorMatrix in="SourceAlpha" type="matrix"
                values="0 0 0 0 0 0 0 0 0 0 0 0 0 0 0 0 0 0 127 0" result="hardAlpha" />
            <feOffset dy="-1" />
            <feGaussianBlur stdDeviation="2" />
            <feComposite in2="hardAlpha" operator="arithmetic" k2="-1" k3="1" />
            <feColorMatrix type="matrix"
                values="0 0 0 0 0.158333 0 0 0 0 0.143358 0 0 0 0 0.00857639 0 0 0 0.48 0" />
            <feBlend mode="normal" in2="shape" result="effect1_innerShadow_3801_25626" />
            <feColorMatrix in="SourceAlpha" type="matrix"
                values="0 0 0 0 0 0 0 0 0 0 0 0 0 0 0 0 0 0 127 0" result="hardAlpha" />
            <feOffset dy="1" />
            <feGaussianBlur stdDeviation="0.5" />
            <feComposite in2="hardAlpha" operator="arithmetic" k2="-1" k3="1" />
            <feColorMatrix type="matrix" values="0 0 0 0 1 0 0 0 0 1 0 0 0 0 1 0 0 0 0.86 0" />
            <feBlend mode="normal" in2="effect1_innerShadow_3801_25626"
                result="effect2_innerShadow_3801_25626" />
        </filter>
        <linearGradient id="paint0_linear_3801_25626" x1="2.76515" y1="14.0156" x2="14.272"
            y2="2.20801" gradientUnits="userSpaceOnUse">
            <stop stop-color="#87B76B" />
            <stop offset="0.260417" stop-color="#D6FFBE" />
            <stop offset="1" stop-color="#D6FFBE" stop-opacity="0" />
        </linearGradient>
    </defs>
    <g filter="url(#filter0_ii_3801_25626)">
        <path
            d="M12.2513 2.41979L12.0692 2.48779C11.919 2.54401 11.7973 2.65768 11.7308 2.8036C11.6643 2.94962 11.6585 3.11601 11.7147 3.26627L11.7239 3.29105C9.89728 6.34244 7.78544 7.75947 6.56211 8.3717L6.37123 7.86075C6.34632 7.79406 6.296 7.73997 6.2313 7.71046C6.16651 7.68099 6.09264 7.67837 6.02604 7.70325L3.3253 8.71217C2.98192 8.84159 2.70394 9.10191 2.55249 9.43611C2.40105 9.77031 2.38846 10.151 2.51749 10.4944L3.19373 12.3046C3.32232 12.6471 3.58158 12.9248 3.91448 13.0766C4.24739 13.2284 4.62692 13.2422 4.96998 13.1147L5.61431 12.874L6.98119 16.5329C7.0336 16.674 7.1397 16.7887 7.27639 16.852C7.413 16.9153 7.56914 16.9219 7.7107 16.8706L7.89009 16.8036C8.03092 16.7501 8.14468 16.6427 8.20639 16.5052C8.26807 16.3676 8.27257 16.2113 8.21884 16.0705L7.92701 15.2893L8.77124 14.9739C8.86235 14.9399 8.92791 14.8591 8.94257 14.763C8.95722 14.6669 8.91865 14.5703 8.84185 14.5107L7.14402 13.1931L6.85185 12.4113L7.67141 12.1051C7.80978 12.0528 7.87974 11.8982 7.82769 11.7597L7.65816 11.3059C8.97305 10.9664 11.5056 10.6478 14.9038 11.7876C14.969 11.9228 15.0821 12.0286 15.2213 12.0846C15.3604 12.1407 15.5154 12.1428 15.656 12.0906L15.8385 12.0225C15.9891 11.9667 16.1113 11.8533 16.178 11.7072C16.2446 11.5612 16.2504 11.3946 16.1938 11.2443L13.03 2.77515C12.9741 2.62459 12.8606 2.50243 12.7144 2.43578C12.5683 2.36913 12.4016 2.36348 12.2513 2.42004L12.2513 2.41979ZM6.86413 9.18045C8.92502 8.32313 10.8919 7.25552 12.7337 5.99452L12.8196 6.2243C10.9769 7.48371 9.0097 8.55024 6.94881 9.40713L6.86413 9.18045Z"
            fill="url(#paint0_linear_3801_25626)" />
    </g>
    <path
        d="M11.9981 1.66089C11.9891 1.66389 11.9802 1.66705 11.9713 1.67037L11.7893 1.73838L11.7888 1.73855C11.4396 1.86926 11.1572 2.13331 11.0029 2.47163L11.0028 2.47196C10.9066 2.68305 10.8651 2.91241 10.8789 3.13957C9.51331 5.32824 8.01607 6.56955 6.924 7.25125C6.82524 7.1383 6.70274 7.0462 6.56325 6.98258L6.56255 6.98226C6.3054 6.86529 6.01173 6.8546 5.74608 6.95384L3.04534 7.96276L3.04534 7.96276L3.04315 7.96358C2.50154 8.16771 2.06286 8.57841 1.82382 9.10592C1.58499 9.63295 1.565 10.2333 1.76832 10.775M11.9981 1.66089L14.9224 12.8267C14.7236 12.7467 14.5477 12.6229 14.4063 12.4667M11.9981 1.66089C12.3401 1.5406 12.7158 1.55715 13.0463 1.70788L12.9211 1.98245L13.0463 1.70788C13.3858 1.86267 13.6495 2.14617 13.7795 2.49558M11.9981 1.66089L16.9431 10.9639L13.7795 2.49558M1.76832 10.775L1.76808 10.7744L2.51749 10.4944L1.76861 10.7758C1.76851 10.7755 1.76842 10.7753 1.76832 10.775ZM1.76832 10.775L2.44432 12.5846L2.44477 12.5857C2.6478 13.1266 3.05705 13.5649 3.58253 13.8045C4.07429 14.0288 4.63057 14.0622 5.14381 13.9005M5.14381 13.9005L6.23154 16.8122M5.14381 13.9005L4.8649 13.1539L4.96998 13.1147L5.89428 13.6234L5.24994 13.8641L5.24871 13.8645C5.21397 13.8774 5.17899 13.8894 5.14381 13.9005ZM6.23154 16.8122L6.23177 16.8128L6.98119 16.5329L6.23123 16.8114C6.23133 16.8116 6.23144 16.8119 6.23154 16.8122ZM6.23154 16.8122C6.35755 17.1508 6.61226 17.4262 6.94044 17.578C7.26875 17.73 7.64366 17.7459 7.98338 17.6227L7.98339 17.6227L7.99066 17.62L8.17006 17.553L8.17441 17.5514C8.5139 17.4223 8.78774 17.1636 8.93622 16.8328L8.93637 16.8325C9.08435 16.5025 9.09573 16.1271 8.9675 15.7885M8.9675 15.7885L8.96825 15.7905L8.21884 16.0705L8.96625 15.7852C8.96666 15.7863 8.96708 15.7874 8.9675 15.7885ZM8.9675 15.7885L8.95639 15.7588M8.95639 15.7588L9.0512 15.7233C9.41424 15.5877 9.67507 15.2662 9.73342 14.8836C9.79186 14.5005 9.63812 14.1162 9.33266 13.8789L9.33232 13.8786L7.99188 12.8384M8.95639 15.7588L8.67642 15.0093L8.20697 16.0387L8.95639 15.7588ZM7.99188 12.8384C8.37641 12.6764 8.61946 12.3124 8.64321 11.9177M7.99188 12.8384C7.9795 12.8436 7.96698 12.8486 7.95432 12.8534L7.95137 12.8545L7.88132 12.8807L7.8139 12.7003L7.92635 12.7876L7.9307 12.7909L7.99188 12.8384ZM8.64321 11.9177C9.91806 11.7129 11.8926 11.6669 14.4063 12.4667M8.64321 11.9177C8.65191 11.773 8.63116 11.6242 8.57711 11.4798L7.82551 11.9541L7.85816 12.0805C8.07929 12.0234 8.34168 11.9661 8.64321 11.9177ZM14.4063 12.4667C14.3173 12.3682 14.2419 12.2569 14.1833 12.1354L14.9038 11.7876M14.4063 12.4667C14.4868 12.4923 14.5678 12.5188 14.6494 12.5461L14.9038 11.7876M14.9038 11.7876C14.969 11.9228 15.0821 12.0286 15.2213 12.0846M14.9038 11.7876L15.2213 12.0846M15.2213 12.0846C15.3604 12.1407 15.5154 12.1428 15.656 12.0906L15.8385 12.0225L16.1162 12.7727C16.1167 12.7726 16.1172 12.7724 16.1176 12.7722L15.936 12.8401L15.934 12.8408C15.6071 12.962 15.2465 12.9572 14.9227 12.8268L15.2213 12.0846ZM13.7795 2.49558L13.7794 2.49519L13.03 2.77515L13.7801 2.49701C13.7799 2.49653 13.7797 2.49606 13.7795 2.49558ZM6.02604 7.70325L3.3253 8.71217L6.23115 7.71039C6.16639 7.68098 6.09259 7.67839 6.02604 7.70325ZM7.89009 16.8036C8.03092 16.7501 8.14468 16.6427 8.20639 16.5052L7.89009 16.8036Z"
        stroke="#82C194" stroke-width="1.6" stroke-linejoin="round" />
</svg>
