<svg width="11" height="18" viewBox="0 0 11 18" fill="none" xmlns="http://www.w3.org/2000/svg">
    <mask id="path-1-outside-1_3801_25621" maskUnits="userSpaceOnUse" x="-0.275391" y="0.458984"
        width="12" height="17" fill="black">
        <rect fill="white" x="-0.275391" y="0.458984" width="12" height="17" />
        <path
            d="M3.65664 5.86433C3.65664 5.09795 4.27979 4.47458 5.04605 4.47458C5.81254 4.47458 6.43601 5.09776 6.43601 5.86433C6.43601 6.63059 5.81254 7.25374 5.04605 7.25374C4.27979 7.25374 3.65664 6.63059 3.65664 5.86433Z" />
        <path fill-rule="evenodd" clip-rule="evenodd"
            d="M9.12017 11.9788C9.29473 11.8932 9.30696 11.9788 9.30696 11.9788C9.30696 11.9788 9.41575 12.0023 9.24043 12.0874L8.42331 12.5721L5.03929 14.2231L2.74586 15.2616L2.23242 15.524C2.18248 15.5482 2.10352 15.54 2.10352 15.54L2.01781 15.524C2.01781 15.524 1.9 15.4937 2.07532 15.4085L2.42328 15.2616L5.37565 13.8573C3.66259 11.7369 0.916499 7.04624 1.95134 4.42713C2.42646 3.22475 3.43334 2.54419 4.86332 2.45925C4.86731 2.45901 4.8713 2.45935 4.87529 2.45969C4.87834 2.45995 4.88139 2.46021 4.88444 2.46021C4.88705 2.46009 4.88959 2.45986 4.89212 2.45963C4.89642 2.45923 4.90067 2.45884 4.90504 2.45904C6.3354 2.54419 7.3424 3.22509 7.81757 4.42766C8.73045 6.73893 7.09783 11.418 5.62507 13.7538L8.92977 12.0945L9.12017 11.9788ZM4.88409 3.62122C3.72878 3.62122 2.78859 4.56141 2.78859 5.71694C2.78859 6.87225 3.72856 7.81245 4.88409 7.81245C6.03992 7.81245 6.98012 6.87247 6.98012 5.71694C6.98012 4.56141 6.03983 3.62122 4.88409 3.62122Z" />
    </mask>
    <defs>
        <filter id="filter0_ii_3801_25621" x="0.125" y="-0.140625" width="11.8184" height="18.2822"
            filterUnits="userSpaceOnUse" color-interpolation-filters="sRGB">
            <feFlood flood-opacity="0" result="BackgroundImageFix" />
            <feBlend mode="normal" in="SourceGraphic" in2="BackgroundImageFix" result="shape" />
            <feColorMatrix in="SourceAlpha" type="matrix"
                values="0 0 0 0 0 0 0 0 0 0 0 0 0 0 0 0 0 0 127 0" result="hardAlpha" />
            <feOffset dy="-1" />
            <feGaussianBlur stdDeviation="0.5" />
            <feComposite in2="hardAlpha" operator="arithmetic" k2="-1" k3="1" />
            <feColorMatrix type="matrix"
                values="0 0 0 0 0.05605 0 0 0 0 0.0475 0 0 0 0 0.475 0 0 0 0.24 0" />
            <feBlend mode="normal" in2="shape" result="effect1_innerShadow_3801_25621" />
            <feColorMatrix in="SourceAlpha" type="matrix"
                values="0 0 0 0 0 0 0 0 0 0 0 0 0 0 0 0 0 0 127 0" result="hardAlpha" />
            <feOffset dx="1" dy="1" />
            <feGaussianBlur stdDeviation="0.5" />
            <feComposite in2="hardAlpha" operator="arithmetic" k2="-1" k3="1" />
            <feColorMatrix type="matrix" values="0 0 0 0 1 0 0 0 0 1 0 0 0 0 1 0 0 0 0.25 0" />
            <feBlend mode="normal" in2="effect1_innerShadow_3801_25621"
                result="effect2_innerShadow_3801_25621" />
        </filter>
        <linearGradient id="paint0_linear_3801_25621" x1="4.46769" y1="9.89968" x2="6.90633"
            y2="11.3006" gradientUnits="userSpaceOnUse">
            <stop stop-color="#A5C3FF" />
            <stop offset="1" stop-color="#CBDCFF" />
        </linearGradient>
        <linearGradient id="paint1_linear_3801_25621" x1="4.46769" y1="9.89968" x2="6.90633"
            y2="11.3006" gradientUnits="userSpaceOnUse">
            <stop stop-color="#A5C3FF" />
            <stop offset="1" stop-color="#CBDCFF" />
        </linearGradient>
        <linearGradient id="paint2_linear_3801_25621" x1="2.05693" y1="0.479915" x2="7.13469"
            y2="16.6093" gradientUnits="userSpaceOnUse">
            <stop stop-color="#1ABAFF" />
            <stop offset="0.251456" stop-color="#276BD1" />
            <stop offset="0.703125" stop-color="#276BD1" />
            <stop offset="1" stop-color="#782B94" />
        </linearGradient>
    </defs>
    <g filter="url(#filter0_ii_3801_25621)">
        <path
            d="M3.65664 5.86433C3.65664 5.09795 4.27979 4.47458 5.04605 4.47458C5.81254 4.47458 6.43601 5.09776 6.43601 5.86433C6.43601 6.63059 5.81254 7.25374 5.04605 7.25374C4.27979 7.25374 3.65664 6.63059 3.65664 5.86433Z"
            fill="url(#paint0_linear_3801_25621)" />
        <path fill-rule="evenodd" clip-rule="evenodd"
            d="M9.12017 11.9788C9.29473 11.8932 9.30696 11.9788 9.30696 11.9788C9.30696 11.9788 9.41575 12.0023 9.24043 12.0874L8.42331 12.5721L5.03929 14.2231L2.74586 15.2616L2.23242 15.524C2.18248 15.5482 2.10352 15.54 2.10352 15.54L2.01781 15.524C2.01781 15.524 1.9 15.4937 2.07532 15.4085L2.42328 15.2616L5.37565 13.8573C3.66259 11.7369 0.916499 7.04624 1.95134 4.42713C2.42646 3.22475 3.43334 2.54419 4.86332 2.45925C4.86731 2.45901 4.8713 2.45935 4.87529 2.45969C4.87834 2.45995 4.88139 2.46021 4.88444 2.46021C4.88705 2.46009 4.88959 2.45986 4.89212 2.45963C4.89642 2.45923 4.90067 2.45884 4.90504 2.45904C6.3354 2.54419 7.3424 3.22509 7.81757 4.42766C8.73045 6.73893 7.09783 11.418 5.62507 13.7538L8.92977 12.0945L9.12017 11.9788ZM4.88409 3.62122C3.72878 3.62122 2.78859 4.56141 2.78859 5.71694C2.78859 6.87225 3.72856 7.81245 4.88409 7.81245C6.03992 7.81245 6.98012 6.87247 6.98012 5.71694C6.98012 4.56141 6.03983 3.62122 4.88409 3.62122Z"
            fill="url(#paint1_linear_3801_25621)" />
    </g>
    <path
        d="M9.30696 11.9788L7.72306 12.2052C7.81777 12.8678 8.31497 13.4015 8.96928 13.5427L9.30696 11.9788ZM9.12017 11.9788L8.41584 10.5422C8.37264 10.5633 8.33041 10.5865 8.28928 10.6114L9.12017 11.9788ZM9.24043 12.0874L8.5414 10.6482C8.50147 10.6676 8.46236 10.6886 8.42418 10.7113L9.24043 12.0874ZM8.42331 12.5721L9.12489 14.0101C9.16394 13.991 9.2022 13.9704 9.23956 13.9482L8.42331 12.5721ZM5.03929 14.2231L5.69925 15.6807C5.71321 15.6744 5.72709 15.6678 5.74087 15.6611L5.03929 14.2231ZM2.74586 15.2616L2.0859 13.804C2.06292 13.8144 2.04018 13.8254 2.01772 13.8368L2.74586 15.2616ZM2.23242 15.524L2.93066 16.9636C2.94068 16.9587 2.95065 16.9537 2.96057 16.9487L2.23242 15.524ZM2.10352 15.54L1.80854 17.1126C1.85185 17.1207 1.89549 17.1271 1.93933 17.1316L2.10352 15.54ZM2.01781 15.524L1.61947 17.0736C1.65366 17.0824 1.68813 17.09 1.72283 17.0965L2.01781 15.524ZM2.07532 15.4085L1.45277 13.9346C1.42698 13.9455 1.40148 13.9571 1.3763 13.9693L2.07532 15.4085ZM2.42328 15.2616L3.04584 16.7355C3.06761 16.7263 3.08918 16.7166 3.11053 16.7064L2.42328 15.2616ZM5.37565 13.8573L6.0629 15.3022C6.50545 15.0917 6.82713 14.69 6.93581 14.2121C7.04449 13.7343 6.92819 13.233 6.62022 12.8518L5.37565 13.8573ZM1.95134 4.42713L0.463305 3.83913L0.463285 3.83918L1.95134 4.42713ZM4.86332 2.45925L4.95819 4.05644L4.9601 4.05632L4.86332 2.45925ZM4.87529 2.45969L4.73921 4.0539L4.73922 4.0539L4.87529 2.45969ZM4.88444 2.46021V4.06021C4.90867 4.06021 4.93289 4.05966 4.95709 4.05856L4.88444 2.46021ZM4.89212 2.45963L5.03918 4.05285L5.03919 4.05285L4.89212 2.45963ZM4.90504 2.45904L5.00012 0.861866C4.99302 0.861444 4.98591 0.861068 4.97881 0.860741L4.90504 2.45904ZM7.81757 4.42766L9.30571 3.8399L9.30562 3.83968L7.81757 4.42766ZM5.62507 13.7538L4.27164 12.9005C3.88847 13.5082 3.95734 14.2968 4.44007 14.8289C4.92279 15.361 5.70099 15.5061 6.34303 15.1837L5.62507 13.7538ZM8.92977 12.0945L9.64773 13.5244C9.6862 13.505 9.72388 13.4842 9.76066 13.4618L8.92977 12.0945ZM9.30696 11.9788C10.8909 11.7524 10.8906 11.7507 10.8904 11.7491C10.8903 11.7485 10.8901 11.7469 10.8899 11.7458C10.8896 11.7435 10.8892 11.7413 10.8889 11.739C10.8882 11.7345 10.8875 11.73 10.8868 11.7253C10.8853 11.7161 10.8837 11.7067 10.882 11.6971C10.8785 11.6778 10.8746 11.6577 10.87 11.6368C10.8609 11.595 10.8492 11.5493 10.834 11.5004C10.8039 11.4037 10.758 11.2877 10.6867 11.1646C10.5358 10.9041 10.2832 10.6368 9.91107 10.4768C9.21717 10.1784 8.61036 10.4468 8.41584 10.5422L9.82451 13.4154C9.77698 13.4387 9.65254 13.495 9.46982 13.5235C9.28038 13.5531 8.97898 13.5593 8.64698 13.4166C8.29975 13.2673 8.06111 13.016 7.91794 12.7689C7.85049 12.6525 7.8069 12.5425 7.7782 12.4502C7.76368 12.4035 7.7524 12.3594 7.74356 12.3189C7.73912 12.2986 7.73525 12.2789 7.73187 12.26C7.73018 12.2505 7.72861 12.2412 7.72714 12.2321C7.72641 12.2275 7.7257 12.223 7.72502 12.2185C7.72468 12.2163 7.72435 12.214 7.72402 12.2118C7.72386 12.2107 7.72361 12.209 7.72353 12.2085C7.72329 12.2068 7.72306 12.2052 9.30696 11.9788ZM9.93946 13.5266C10.0348 13.4803 10.2453 13.3728 10.4451 13.1769C10.6274 12.9981 11.1407 12.3811 10.8634 11.5138C10.6457 10.833 10.0889 10.577 10.006 10.5377C9.91416 10.4942 9.83464 10.4669 9.78112 10.4505C9.75262 10.4417 9.72684 10.4347 9.70457 10.429C9.69333 10.4261 9.6827 10.4235 9.67276 10.4212C9.66778 10.42 9.66294 10.4189 9.65826 10.4178C9.65592 10.4173 9.65361 10.4168 9.65134 10.4163C9.65021 10.416 9.64908 10.4158 9.64797 10.4155C9.64741 10.4154 9.64657 10.4152 9.6463 10.4152C9.64547 10.415 9.64464 10.4148 9.30696 11.9788C8.96928 13.5427 8.96846 13.5426 8.96763 13.5424C8.96735 13.5423 8.96652 13.5421 8.96597 13.542C8.96486 13.5418 8.96374 13.5415 8.96262 13.5413C8.96037 13.5408 8.95811 13.5403 8.95582 13.5398C8.95124 13.5387 8.94656 13.5377 8.94178 13.5366C8.93223 13.5343 8.9222 13.5319 8.91171 13.5292C8.89095 13.5239 8.86734 13.5174 8.84147 13.5094C8.79321 13.4946 8.72082 13.4698 8.63641 13.4298C8.55774 13.3926 8.423 13.3209 8.28014 13.1962C8.13678 13.0711 7.92859 12.8423 7.81547 12.4885C7.69304 12.1057 7.73113 11.7298 7.85044 11.4277C7.95752 11.1567 8.11372 10.9812 8.20449 10.8922C8.37533 10.7246 8.53368 10.652 8.5414 10.6482L9.93946 13.5266ZM9.23956 13.9482L10.0567 13.4636L8.42418 10.7113L7.60706 11.196L9.23956 13.9482ZM5.74087 15.6611L9.12489 14.0101L7.72174 11.1341L4.33771 12.7851L5.74087 15.6611ZM3.40582 16.7191L5.69925 15.6807L4.37933 12.7656L2.0859 13.804L3.40582 16.7191ZM2.96057 16.9487L3.474 16.6863L2.01772 13.8368L1.50428 14.0992L2.96057 16.9487ZM2.10352 15.54C1.93933 17.1316 1.93962 17.1316 1.9399 17.1317C1.94 17.1317 1.94029 17.1317 1.94048 17.1317C1.94087 17.1318 1.94125 17.1318 1.94165 17.1318C1.94243 17.1319 1.94322 17.132 1.94402 17.1321C1.94561 17.1322 1.94725 17.1324 1.94892 17.1326C1.95226 17.1329 1.95575 17.1332 1.95939 17.1335C1.96665 17.1342 1.97454 17.1349 1.983 17.1355C1.99983 17.1368 2.01945 17.1381 2.0414 17.1392C2.0839 17.1412 2.14198 17.1425 2.21023 17.1399C2.29767 17.1366 2.60071 17.1236 2.93066 16.9636L1.53418 14.0844C1.8142 13.9485 2.05278 13.9436 2.08825 13.9422C2.13052 13.9406 2.16574 13.9415 2.19187 13.9427C2.20564 13.9434 2.21869 13.9442 2.23101 13.9452C2.23722 13.9456 2.24336 13.9462 2.24944 13.9467C2.25249 13.947 2.25553 13.9473 2.25857 13.9476C2.26009 13.9477 2.26161 13.9479 2.26313 13.948C2.26389 13.9481 2.26465 13.9482 2.26541 13.9483C2.2658 13.9483 2.26618 13.9483 2.26656 13.9484C2.26675 13.9484 2.26703 13.9484 2.26713 13.9484C2.26742 13.9485 2.2677 13.9485 2.10352 15.54ZM1.72283 17.0965L1.80854 17.1126L2.39849 13.9675L2.31279 13.9514L1.72283 17.0965ZM1.3763 13.9693C1.27478 14.0186 1.03278 14.142 0.814131 14.38C0.558088 14.6587 0.173999 15.3164 0.502411 16.11C0.736932 16.6767 1.19886 16.9049 1.28427 16.9478C1.36763 16.9897 1.44022 17.0174 1.49073 17.0348C1.51738 17.044 1.54159 17.0516 1.56265 17.0579C1.57327 17.061 1.58333 17.0639 1.59276 17.0665C1.59748 17.0678 1.60207 17.069 1.60652 17.0702C1.60874 17.0708 1.61094 17.0714 1.61309 17.0719C1.61417 17.0722 1.61524 17.0725 1.6163 17.0728C1.61683 17.0729 1.61763 17.0731 1.61789 17.0732C1.61868 17.0734 1.61947 17.0736 2.01781 15.524C2.41616 13.9743 2.41694 13.9745 2.41773 13.9747C2.41799 13.9748 2.41878 13.975 2.41931 13.9752C2.42036 13.9754 2.42142 13.9757 2.42249 13.976C2.42462 13.9765 2.42677 13.9771 2.42893 13.9777C2.43327 13.9788 2.43769 13.98 2.4422 13.9813C2.45119 13.9838 2.46061 13.9864 2.47041 13.9893C2.48983 13.9951 2.51168 14.002 2.53545 14.0102C2.58021 14.0256 2.64496 14.0503 2.72002 14.088C2.79078 14.1235 2.90608 14.1881 3.03031 14.2944C3.15228 14.3989 3.33637 14.5895 3.45923 14.8864C3.59417 15.2124 3.61572 15.5742 3.52106 15.913C3.4349 16.2214 3.27591 16.4304 3.17061 16.545C2.97918 16.7533 2.7882 16.841 2.77434 16.8478L1.3763 13.9693ZM1.80073 13.7876L1.45277 13.9346L2.69787 16.8824L3.04584 16.7355L1.80073 13.7876ZM4.6884 12.4124L1.73603 13.8167L3.11053 16.7064L6.0629 15.3022L4.6884 12.4124ZM0.463285 3.83918C0.0593911 4.86141 0.0652096 5.96673 0.230229 6.96764C0.397344 7.98126 0.748065 9.01142 1.1669 9.96991C2.00258 11.8824 3.19671 13.7063 4.13109 14.8628L6.62022 12.8518C5.84154 11.888 4.80608 10.3063 4.09917 8.68859C3.7467 7.88197 3.49786 7.11585 3.3876 6.44708C3.27525 5.76559 3.32587 5.30241 3.4394 5.01508L0.463285 3.83918ZM4.76845 0.862068C2.80175 0.978887 1.19661 1.98338 0.463305 3.83913L3.43938 5.01513C3.65632 4.46613 4.06492 4.1095 4.95819 4.05644L4.76845 0.862068ZM5.01137 0.865489C5.01117 0.865472 5.00886 0.865275 5.00626 0.865058C5.00345 0.864825 4.99914 0.864473 4.99392 0.864075C4.98369 0.863295 4.96737 0.862137 4.94739 0.861161C4.90817 0.859244 4.84455 0.857454 4.76653 0.862183L4.9601 4.05632C4.88607 4.06081 4.82645 4.05907 4.79121 4.05735C4.75933 4.05579 4.73234 4.05331 4.73921 4.0539L5.01137 0.865489ZM4.88444 0.860213C4.9275 0.860213 4.96196 0.86203 4.98209 0.863319C5.00034 0.864487 5.01574 0.865862 5.01136 0.865489L4.73922 4.0539C4.73927 4.0539 4.74426 4.05433 4.74995 4.05478C4.75611 4.05528 4.76581 4.05602 4.77764 4.05678C4.80083 4.05827 4.83834 4.06021 4.88444 4.06021V0.860213ZM4.74505 0.8664C4.74227 0.866657 4.7504 0.865887 4.76013 0.865106C4.77097 0.864234 4.78912 0.862894 4.8118 0.861863L4.95709 4.05856C4.98237 4.05741 5.0031 4.0559 5.01649 4.05482C5.02327 4.05428 5.02887 4.05379 5.03254 4.05346C5.03594 4.05315 5.03894 4.05288 5.03918 4.05285L4.74505 0.8664ZM4.97881 0.860741C4.90583 0.857372 4.84596 0.859507 4.80742 0.861705C4.78808 0.862809 4.77224 0.864049 4.76222 0.864886C4.75712 0.865312 4.7529 0.865687 4.75013 0.865936C4.74756 0.866167 4.74528 0.866378 4.74504 0.866401L5.03919 4.05285C5.04603 4.05222 5.02022 4.05477 4.98968 4.05651C4.95544 4.05846 4.89988 4.0605 4.83127 4.05734L4.97881 0.860741ZM9.30562 3.83968C8.57233 1.98387 6.96723 0.978964 5.00012 0.861866L4.80996 4.05621C5.70358 4.10941 6.11247 4.4663 6.32953 5.01563L9.30562 3.83968ZM6.97851 14.6072C7.80813 13.2914 8.64425 11.3893 9.1594 9.50309C9.41862 8.55402 9.60835 7.5667 9.66439 6.62667C9.71934 5.70466 9.65278 4.71864 9.30571 3.8399L6.32944 5.01542C6.4388 5.29231 6.51049 5.75791 6.47006 6.43626C6.4307 7.0966 6.2914 7.8584 6.07247 8.65998C5.63135 10.2751 4.91478 11.8804 4.27164 12.9005L6.97851 14.6072ZM8.21181 10.6646L4.90712 12.3239L6.34303 15.1837L9.64773 13.5244L8.21181 10.6646ZM8.28928 10.6114L8.09888 10.7271L9.76066 13.4618L9.95107 13.3461L8.28928 10.6114ZM4.38859 5.71694C4.38859 5.44496 4.61254 5.22122 4.88409 5.22122V2.02122C2.84501 2.02122 1.18859 3.67787 1.18859 5.71694H4.38859ZM4.88409 6.21245C4.61232 6.21245 4.38859 5.98871 4.38859 5.71694H1.18859C1.18859 7.7558 2.84479 9.41245 4.88409 9.41245V6.21245ZM5.38012 5.71694C5.38012 5.98844 5.15664 6.21245 4.88409 6.21245V9.41245C6.9232 9.41245 8.58012 7.7565 8.58012 5.71694H5.38012ZM4.88409 5.22122C5.15638 5.22122 5.38012 5.44527 5.38012 5.71694H8.58012C8.58012 3.67756 6.92329 2.02122 4.88409 2.02122V5.22122ZM5.04605 2.87458C3.39572 2.87458 2.05664 4.21471 2.05664 5.86433H5.25664C5.25664 5.9812 5.16385 6.07458 5.04605 6.07458V2.87458ZM8.03601 5.86433C8.03601 4.21372 6.6958 2.87458 5.04605 2.87458V6.07458C4.92927 6.07458 4.83601 5.9818 4.83601 5.86433H8.03601ZM5.04605 8.85374C6.69554 8.85374 8.03601 7.5149 8.03601 5.86433H4.83601C4.83601 5.74628 4.92953 5.65374 5.04605 5.65374V8.85374ZM2.05664 5.86433C2.05664 7.51425 3.39613 8.85374 5.04605 8.85374V5.65374C5.16344 5.65374 5.25664 5.74694 5.25664 5.86433H2.05664Z"
        fill="url(#paint2_linear_3801_25621)" fill-opacity="0.75"
        mask="url(#path-1-outside-1_3801_25621)" />
</svg>
