<svg width="18" height="18" viewBox="0 0 18 18" fill="none" xmlns="http://www.w3.org/2000/svg">
    <defs>
        <linearGradient id="paint0_linear_3801_25617" x1="9.0002" y1="-1.53516" x2="14.0434"
            y2="22.9551" gradientUnits="userSpaceOnUse">
            <stop stop-color="#FEDF91" />
            <stop offset="1" stop-color="#FEDF91" stop-opacity="0" />
        </linearGradient>
        <linearGradient id="paint1_linear_3801_25617" x1="15.9419" y1="20.4871" x2="-4.75145"
            y2="4.72978" gradientUnits="userSpaceOnUse">
            <stop stop-color="#FFC633" />
            <stop offset="1" stop-color="#FFC633" stop-opacity="0" />
        </linearGradient>
    </defs>
    <path
        d="M8.10766 2.44893C8.47752 1.71687 9.52288 1.71687 9.89275 2.44893L11.0819 4.80246C11.5182 5.66602 12.3442 6.26614 13.3003 6.41424L15.9061 6.81787C16.7166 6.94342 17.0396 7.93761 16.4577 8.51559L14.5868 10.3738C13.9004 11.0556 13.5848 12.0266 13.7395 12.9817L14.1608 15.5847C14.2919 16.3943 13.4462 17.0088 12.7166 16.6339L10.3713 15.4288C9.5107 14.9867 8.4897 14.9867 7.62914 15.4288L5.28376 16.6339C4.55424 17.0088 3.70853 16.3943 3.83959 15.5847L4.26095 12.9817C4.41556 12.0266 4.10005 11.0556 3.41359 10.3738L1.54271 8.5156C0.96077 7.93761 1.28381 6.94342 2.09433 6.81787L4.70012 6.41424C5.65624 6.26614 6.48224 5.66602 6.91855 4.80246L8.10766 2.44893L7.21511 1.99798L8.10766 2.44893Z"
        fill="url(#paint0_linear_3801_25617)" stroke="url(#paint1_linear_3801_25617)"
        stroke-width="2" />
</svg>
