<svg width="112" height="16" viewBox="0 0 112 16" fill="none" xmlns="http://www.w3.org/2000/svg">
<g clip-path="url(#clip0_3172_31449)">
<path d="M72.954 0.417391H63.9068C63.8307 0.417391 63.7547 0.486957 63.7547 0.556522C63.5266 4.31304 62.7664 8.34783 61.626 11.6174V11.7565C61.702 11.8261 61.702 11.8261 61.778 11.8261H64.8951C64.9712 11.8261 65.0472 11.7565 65.0472 11.7565C65.8835 9.25217 66.6438 5.91304 66.8718 3.13043H69.8369V11.7565C69.8369 11.8261 69.9129 11.8957 69.989 11.8957H72.954C73.0301 11.8957 73.1061 11.8261 73.1061 11.7565V0.626087C73.1061 0.486957 73.0301 0.417391 72.954 0.417391V0.417391ZM111.348 0.417391H108.383C108.307 0.417391 108.231 0.486957 108.231 0.556522V9.11304C107.546 9.32174 106.938 9.32174 106.178 9.32174C104.201 9.32174 103.745 8.76522 103.745 6.4V0.626087C103.745 0.556522 103.669 0.486957 103.593 0.486957H100.628C100.552 0.486957 100.476 0.556522 100.476 0.626087V6.81739C100.476 10.713 101.92 12.1739 105.57 12.1739C107.623 12.1739 109.979 11.687 111.348 11.2C111.424 11.2 111.424 11.1304 111.424 11.0609V0.626087C111.5 0.486957 111.424 0.417391 111.348 0.417391V0.417391ZM48.5492 0.486957H45.5081C45.4321 0.486957 45.3561 0.556522 45.3561 0.556522C44.8999 2.22609 43.9116 5.07826 42.6191 8.06957L39.578 0.486957C39.578 0.417391 39.502 0.417391 39.426 0.417391H36.3849C36.3088 0.417391 36.3088 0.486957 36.2328 0.486957C36.1568 0.556522 36.1568 0.556522 36.2328 0.626087L40.7944 11.9652C40.3383 12.8696 39.8821 13.5652 39.502 14.2609C39.1979 14.7478 38.8938 15.3043 38.5896 15.7913C38.5136 15.8609 38.5896 15.8609 38.5896 15.9304C38.6657 16 38.6657 16 38.7417 16H42.0109C42.0869 16 42.0869 15.9304 42.1629 15.9304C42.6951 14.9565 43.4554 13.5652 44.0636 12.1739C45.9643 8.06957 47.5609 4.17391 48.7013 0.626087C48.7013 0.556522 48.7013 0.556522 48.6253 0.486957H48.5492V0.486957ZM59.3451 9.18261C59.3451 9.11304 59.2691 9.11304 59.2691 9.11304H59.117C58.4328 9.32174 57.0643 9.6 56.076 9.6C54.0232 9.6 53.0349 9.11304 53.0349 6.1913C53.0349 3.89565 53.339 2.78261 56.076 2.78261C56.8362 2.78261 57.5965 2.85217 58.5088 3.13043C58.5849 3.13043 58.6609 3.13043 58.7369 3.06087C59.117 2.43478 59.4972 1.73913 59.9533 0.834783V0.695652C59.9533 0.626087 59.8013 0.556522 59.8013 0.556522C58.5849 0.208696 57.1403 0 55.8479 0C51.5143 0 49.6136 1.8087 49.6136 6.05217C49.6136 10.2957 51.5143 12.1739 55.8479 12.1739C56.9123 12.1739 59.041 11.9652 60.1054 11.5478C60.1814 11.4783 60.1814 11.4783 60.1814 11.3391L59.3451 9.18261V9.18261ZM87.5513 0.486957H84.5102C84.4342 0.486957 84.3581 0.556522 84.3581 0.556522C83.902 2.22609 82.9136 5.07826 81.6212 8.06957L78.5801 0.486957C78.5801 0.417391 78.504 0.417391 78.428 0.417391H75.3869C75.3109 0.417391 75.3109 0.486957 75.2349 0.486957C75.1588 0.556522 75.1588 0.556522 75.2349 0.626087L79.7965 11.9652C79.3403 12.8696 78.8842 13.4957 78.504 14.2609C78.1999 14.7478 77.8958 15.3043 77.5917 15.7913C77.5157 15.8609 77.5917 15.8609 77.5917 15.9304C77.6677 16 77.6677 16 77.7438 16H81.0129C81.089 16 81.089 15.9304 81.165 15.9304C81.6972 14.9565 82.4575 13.5652 83.0657 12.1739C84.9664 8.06957 86.5629 4.17391 87.6273 0.626087C87.6273 0.556522 87.6273 0.556522 87.5513 0.486957C87.6273 0.486957 87.5513 0.486957 87.5513 0.486957V0.486957ZM98.6513 0.417391H89.9081C89.8321 0.417391 89.7561 0.486957 89.7561 0.556522V11.6174C89.7561 11.687 89.8321 11.7565 89.9081 11.7565H92.8732C92.9492 11.7565 93.0253 11.687 93.0253 11.6174V3.06087H97.5869C97.6629 3.06087 97.739 2.9913 97.739 2.9913C98.1191 2.22609 98.4232 1.46087 98.8033 0.626087V0.486957C98.7273 0.486957 98.6513 0.417391 98.6513 0.417391" fill="#EE3F58"/>
<path d="M16.3137 9.59977C14.337 9.59977 13.7288 9.11281 13.7288 6.12151C13.7288 2.92151 14.413 2.64325 16.3137 2.64325C18.2144 2.64325 18.9747 2.92151 18.9747 6.12151C18.8986 9.18238 18.2904 9.59977 16.3137 9.59977ZM16.3137 0.0693359C12.0562 0.0693359 10.3836 1.7389 10.3836 6.05194C10.3836 10.4346 12.0562 12.1041 16.3137 12.1041C20.5712 12.1041 22.3199 10.4346 22.3199 6.05194C22.3199 1.80847 20.5712 0.0693359 16.3137 0.0693359V0.0693359ZM34.1041 9.18238C34.1041 9.11281 34.0281 9.11281 34.0281 9.11281H33.876C33.1918 9.32151 31.8233 9.59977 30.8349 9.59977C28.7822 9.59977 27.7938 9.11281 27.7938 6.19107C27.7938 3.89542 28.0979 2.78238 30.8349 2.78238C31.5952 2.78238 32.3555 2.85194 33.2678 3.13021C33.3438 3.13021 33.4199 3.13021 33.4959 3.06064C33.876 2.43455 34.2562 1.7389 34.7123 0.834553V0.695423C34.7123 0.625858 34.6363 0.625858 34.6363 0.625858C33.4959 0.278032 31.9753 0.138901 30.7589 0.138901C26.4253 0.138901 24.5247 1.9476 24.5247 6.19107C24.5247 10.4346 26.4253 12.3128 30.7589 12.3128C31.8233 12.3128 33.9521 12.1041 35.0164 11.6867C35.0925 11.6172 35.0925 11.6172 35.0925 11.478L34.1041 9.18238ZM9.3952 0.417162H0.652055C0.576027 0.417162 0.5 0.486727 0.5 0.625858V11.6867C0.5 11.7563 0.576027 11.8259 0.652055 11.8259H3.61712C3.69315 11.8259 3.76918 11.7563 3.76918 11.6867V3.06064H8.33082C8.40685 3.06064 8.40685 2.99108 8.48288 2.99108C8.86301 2.22586 9.24315 1.39108 9.54726 0.625858V0.486727C9.54726 0.486727 9.47123 0.417162 9.3952 0.417162" fill="#0065B1"/>
</g>
<defs>
<clipPath id="clip0_3172_31449">
<rect width="111" height="16" fill="white" transform="translate(0.5)"/>
</clipPath>
</defs>
</svg>
